<?xml version="1.0" encoding="UTF-8" standalone="no"?>
<!-- Created with Inkscape (http://www.inkscape.org/) -->

<svg
   width="123.47222mm"
   height="37.252998mm"
   viewBox="0 0 123.47222 37.252998"
   version="1.1"
   id="svg5"
   xml:space="preserve"
   inkscape:version="1.2.1 (9c6d41e410, 2022-07-14)"
   sodipodi:docname="pink_ribbon_brown_sticker.svg"
   inkscape:export-filename="Pink Ribbon Brown Sticker Export.svg"
   inkscape:export-xdpi="96"
   inkscape:export-ydpi="96"
   xmlns:inkscape="http://www.inkscape.org/namespaces/inkscape"
   xmlns:sodipodi="http://sodipodi.sourceforge.net/DTD/sodipodi-0.dtd"
   xmlns="http://www.w3.org/2000/svg"
   xmlns:svg="http://www.w3.org/2000/svg"><sodipodi:namedview
     id="namedview7"
     pagecolor="#505050"
     bordercolor="#eeeeee"
     borderopacity="1"
     inkscape:showpageshadow="0"
     inkscape:pageopacity="0"
     inkscape:pagecheckerboard="0"
     inkscape:deskcolor="#505050"
     inkscape:document-units="mm"
     showgrid="false"
     inkscape:zoom="2"
     inkscape:cx="53.75"
     inkscape:cy="58.25"
     inkscape:window-width="1842"
     inkscape:window-height="1051"
     inkscape:window-x="-9"
     inkscape:window-y="-9"
     inkscape:window-maximized="1"
     inkscape:current-layer="layer1" /><defs
     id="defs2"><linearGradient
       x1="0"
       y1="0"
       x2="1"
       y2="0"
       gradientUnits="userSpaceOnUse"
       gradientTransform="matrix(-1.529082e-5,395.03871,395.03871,1.529082e-5,174.79004,4.8422155)"
       spreadMethod="pad"
       id="linearGradient37"><stop
         style="stop-opacity:1;stop-color:#c2b59b"
         offset="0"
         id="stop33" /><stop
         style="stop-opacity:1;stop-color:#e0d1b3"
         offset="1"
         id="stop35" /></linearGradient></defs><g
     inkscape:label="Layer 1"
     inkscape:groupmode="layer"
     id="layer1"
     style="display:inline"><path
       d="M 0,37.253 H 123.47222 V 0 H 0 Z"
       style="display:inline;fill:#c2b59b;fill-opacity:1;fill-rule:nonzero;stroke:none;stroke-width:0.18126"
       id="path19" /><path
       d="m 337.11255,399.88142 c 1.04337,-1.55507 2.81531,-2.57746 4.8271,-2.57746 v 0 h 0.001 c 2.01179,0 3.78473,1.02339 4.8291,2.57746 v 0 z m -29.06855,0 c 1.04337,-1.55507 2.81531,-2.57746 4.8271,-2.57746 v 0 c 2.01179,0 3.78473,1.02239 4.8291,2.57746 v 0 z m -29.07155,0 c 1.04338,-1.55507 2.81531,-2.57746 4.8271,-2.57746 v 0 h 10e-4 c 2.0118,0 3.78573,1.02339 4.8291,2.57746 v 0 z m -29.06855,0 c 1.04338,-1.55507 2.81631,-2.57746 4.82711,-2.57746 v 0 c 2.01179,0 3.78472,1.02239 4.8291,2.57746 v 0 z m -29.07154,0 c 1.04337,-1.55507 2.81631,-2.57746 4.8271,-2.57746 v 0 h 0.001 c 2.01179,0 3.78473,1.02339 4.8291,2.57746 v 0 z m -29.06755,0 c 1.04337,-1.55507 2.81531,-2.57746 4.8261,-2.57746 v 0 c 2.01179,0 3.78473,1.02239 4.8291,2.57746 v 0 z m -29.07155,0 c 1.04338,-1.55507 2.81631,-2.57746 4.8271,-2.57746 v 0 h 10e-4 c 2.0108,0 3.78373,1.02339 4.8291,2.57746 v 0 z m -29.06855,0 c 1.04338,-1.55507 2.81531,-2.57746 4.82711,-2.57746 v 0 c 2.01079,0 3.78472,1.02239 4.8291,2.57746 v 0 z m -29.07054,0 c 1.04337,-1.55507 2.81531,-2.57746 4.8271,-2.57746 v 0 c 2.01179,0 3.78473,1.02339 4.8291,2.57746 v 0 z m -29.069551,0 c 1.043373,-1.55507 2.816309,-2.57746 4.828101,-2.57746 v 0 c 2.010793,0 3.784728,1.02239 4.829101,2.57746 v 0 z m -29.070548,0 c 1.043374,-1.55507 2.81531,-2.57746 4.827102,-2.57746 v 0 h 10e-4 c 2.010793,0 3.784728,1.02339 4.829101,2.57746 v 0 z m -29.068548,0 c 1.043374,-1.55507 2.81531,-2.57746 4.827102,-2.57746 v 0 c 2.010793,0 3.784728,1.02239 4.829101,2.57746 v 0 z M 321.58987,388.5842 c 0,-3.21007 2.60343,-5.81451 5.81551,-5.81451 v 0 c 3.21007,0 5.81151,2.60444 5.81151,5.81451 v 0 c 0,3.21107 -2.60144,5.81351 -5.81151,5.81351 v 0 c -3.21208,0 -5.81551,-2.60244 -5.81551,-5.81351 m -29.06755,0 c 0,-3.21007 2.60244,-5.81451 5.81351,-5.81451 v 0 c 3.21107,0 5.81751,2.60444 5.81751,5.81451 v 0 c 0,3.21107 -2.60644,5.81351 -5.81751,5.81351 v 0 c -3.21107,0 -5.81351,-2.60244 -5.81351,-5.81351 m -29.07255,0 c 0,-3.21007 2.60244,-5.81451 5.81551,-5.81451 v 0 c 3.21007,0 5.81251,2.60444 5.81251,5.81451 v 0 c 0,3.21107 -2.60244,5.81351 -5.81251,5.81351 v 0 c -3.21307,0 -5.81551,-2.60244 -5.81551,-5.81351 m -29.06755,0 c 0,-3.21007 2.60244,-5.81451 5.81351,-5.81451 v 0 c 3.21107,0 5.81651,2.60444 5.81651,5.81451 v 0 c 0,3.21107 -2.60544,5.81351 -5.81651,5.81351 v 0 c -3.21107,0 -5.81351,-2.60244 -5.81351,-5.81351 m -29.07154,0 c 0,-3.21007 2.60143,-5.81451 5.8155,-5.81451 v 0 c 3.20908,0 5.81252,2.60444 5.81252,5.81451 v 0 c 0,3.21107 -2.60344,5.81351 -5.81252,5.81351 v 0 c -3.21407,0 -5.8155,-2.60244 -5.8155,-5.81351 m -29.06755,0 c 0,-3.21007 2.60243,-5.81451 5.81451,-5.81451 v 0 c 3.20907,0 5.8165,2.60444 5.8165,5.81451 v 0 c 0,3.21107 -2.60743,5.81351 -5.8165,5.81351 v 0 c -3.21208,0 -5.81451,-2.60244 -5.81451,-5.81351 m -29.07255,0 c 0,-3.21007 2.60244,-5.81451 5.81651,-5.81451 v 0 c 3.20907,0 5.81151,2.60444 5.81151,5.81451 v 0 c 0,3.21107 -2.60244,5.81351 -5.81151,5.81351 v 0 c -3.21407,0 -5.81651,-2.60244 -5.81651,-5.81351 m -29.06755,0 c 0,-3.21007 2.60244,-5.81451 5.81451,-5.81451 v 0 c 3.21007,0 5.81651,2.60444 5.81651,5.81451 v 0 c 0,3.21107 -2.60644,5.81351 -5.81651,5.81351 v 0 c -3.21207,0 -5.81451,-2.60244 -5.81451,-5.81351 m -29.071544,0 c 0,-3.21007 2.602437,-5.81451 5.816508,-5.81451 v 0 c 3.209073,0 5.811506,2.60444 5.811506,5.81451 v 0 c 0,3.21107 -2.602433,5.81351 -5.811506,5.81351 v 0 c -3.214071,0 -5.816508,-2.60244 -5.816508,-5.81351 m -29.067549,0 c 0,-3.21007 2.602437,-5.81451 5.814509,-5.81451 v 0 c 3.210073,0 5.816508,2.60444 5.816508,5.81451 v 0 c 0,3.21107 -2.606435,5.81351 -5.816508,5.81351 v 0 c -3.212072,0 -5.814509,-2.60244 -5.814509,-5.81351 m -29.072546,0 c 0,-3.21007 2.602437,-5.81451 5.816508,-5.81451 v 0 c 3.209073,0 5.810511,2.60444 5.810511,5.81451 v 0 c 0,3.21107 -2.601438,5.81351 -5.810511,5.81351 v 0 c -3.214071,0 -5.816508,-2.60244 -5.816508,-5.81351 m -29.0675493,0 c 0,-3.21007 2.6024376,-5.81451 5.8145092,-5.81451 v 0 c 3.2100731,0 5.8165081,2.60444 5.8165081,5.81451 v 0 c 0,3.21107 -2.606435,5.81351 -5.8165081,5.81351 v 0 c -3.2120716,0 -5.8145092,-2.60244 -5.8145092,-5.81351 M 341.93965,379.86144 c -0.20088,0 -0.39876,-0.01 -0.59364,-0.029 v 0 c -2.93224,-0.29782 -5.21787,-2.77133 -5.21787,-5.78352 v 0 c 0,-3.21108 2.60144,-5.81351 5.81151,-5.81351 v 0 h 0.001 c 3.00919,0 5.48671,2.28762 5.78453,5.21886 v 0 c 0.021,0.19489 0.03,0.39377 0.03,0.59465 v 0 c 0,0.19988 -0.009,0.39876 -0.03,0.59364 v 0 c -0.27784,2.73836 -2.45553,4.91205 -5.19189,5.18988 v 0 c -0.19488,0.019 -0.39276,0.029 -0.59264,0.029 v 0 z m -29.66319,-0.029 c -2.93024,-0.29782 -5.21787,-2.77133 -5.21787,-5.78352 v 0 c 0,-3.21108 2.60244,-5.81351 5.81251,-5.81351 v 0 c 3.20907,0 5.81551,2.60243 5.81551,5.81351 v 0 c 0,3.01219 -2.29162,5.4857 -5.22087,5.78352 v 0 c -0.19488,0.019 -0.39476,0.029 -0.59464,0.029 v 0 c -0.20088,0 -0.39876,-0.01 -0.59464,-0.029 m -28.47691,0.029 c -0.20087,0 -0.39876,-0.01 -0.59464,-0.029 v 0 c -2.93024,-0.29782 -5.21687,-2.77133 -5.21687,-5.78352 v 0 c 0,-3.21108 2.60144,-5.81351 5.81151,-5.81351 v 0 h 10e-4 c 3.0092,0 5.48671,2.28762 5.78453,5.21886 v 0 c 0.021,0.19489 0.031,0.39377 0.031,0.59465 v 0 c 0,0.19988 -0.01,0.39876 -0.031,0.59364 v 0 c -0.27783,2.73836 -2.45552,4.91205 -5.19088,5.18988 v 0 c -0.19489,0.019 -0.39377,0.029 -0.59365,0.029 v 0 z m -29.66319,-0.029 c -2.93024,-0.29782 -5.21686,-2.77133 -5.21686,-5.78352 v 0 c 0,-3.21108 2.60143,-5.81351 5.81151,-5.81351 v 0 c 3.20907,0 5.8155,2.60243 5.8155,5.81351 v 0 c 0,3.01219 -2.29162,5.4857 -5.22086,5.78352 v 0 c -0.19488,0.019 -0.39276,0.029 -0.59464,0.029 v 0 c -0.20088,0 -0.39876,-0.01 -0.59465,-0.029 m -28.4769,0.029 c -0.19988,0 -0.39876,-0.01 -0.59464,-0.029 v 0 c -2.53848,-0.25884 -4.59524,-2.15071 -5.09894,-4.61223 v 0 c -0.077,-0.37877 -0.11793,-0.76954 -0.11793,-1.17129 v 0 c 0,-0.40176 0.041,-0.79253 0.11793,-1.1713 v 0 c 0.54167,-2.64941 2.88527,-4.64221 5.69358,-4.64221 v 0 h 0.001 c 3.20907,0 5.81551,2.60243 5.81551,5.81351 v 0 c 0,3.01219 -2.29163,5.4857 -5.22187,5.78352 v 0 c -0.19488,0.019 -0.39276,0.029 -0.59364,0.029 v 0 z m -29.66219,-0.029 c -2.93024,-0.29782 -5.21787,-2.77133 -5.21787,-5.78352 v 0 c 0,-3.21108 2.60344,-5.81351 5.81151,-5.81351 v 0 c 3.20907,0 5.81551,2.60243 5.81551,5.81351 v 0 c 0,3.01219 -2.29062,5.4857 -5.22087,5.78352 v 0 c -0.19488,0.019 -0.39376,0.029 -0.59464,0.029 v 0 c -0.19988,0 -0.39876,-0.01 -0.59364,-0.029 m -28.47691,0.029 c -0.20088,0 -0.39876,-0.01 -0.59464,-0.029 v 0 c -2.92924,-0.29782 -5.21687,-2.77133 -5.21787,-5.78352 v 0 c 0.001,-3.21108 2.60344,-5.81351 5.81251,-5.81351 v 0 h 10e-4 c 3.20908,0 5.81451,2.60243 5.81451,5.81351 v 0 c 0,3.01219 -2.29062,5.4857 -5.22086,5.78352 v 0 c -0.19489,0.019 -0.39277,0.029 -0.59365,0.029 v 0 z m -29.66319,-0.029 c -2.92924,-0.29782 -5.21687,-2.77133 -5.21687,-5.78352 v 0 c 0,-3.21108 2.60244,-5.81351 5.81152,-5.81351 v 0 c 3.20807,0 5.8145,2.60243 5.8145,5.81351 v 0 c 0,3.01219 -2.29062,5.4857 -5.21986,5.78352 v 0 c -0.19588,0.019 -0.39376,0.029 -0.59464,0.029 v 0 c -0.20088,0 -0.39876,-0.01 -0.59465,-0.029 m -28.4759,0.029 c -0.20088,0 -0.39876,-0.01 -0.59464,-0.029 v 0 c -2.92925,-0.29782 -5.21787,-2.77133 -5.21787,-5.78352 v 0 c 0,-3.21108 2.60344,-5.81351 5.81251,-5.81351 v 0 c 3.20907,10e-4 5.81451,2.60343 5.81451,5.81351 v 0 c 0,3.01219 -2.29063,5.4857 -5.22087,5.78352 v 0 c -0.19488,0.019 -0.39276,0.029 -0.59264,0.029 v 0 z m -29.663193,-0.029 c -2.929241,-0.29782 -5.216868,-2.77133 -5.216868,-5.78352 v 0 c 0,-3.21108 2.601438,-5.81351 5.811511,-5.81351 v 0 c 3.208074,0 5.814509,2.60243 5.814509,5.81351 v 0 c 0,3.01219 -2.290624,5.4857 -5.220865,5.78352 v 0 c -0.195883,0.019 -0.393764,0.029 -0.593644,0.029 v 0 c -0.200879,0 -0.39876,-0.01 -0.594643,-0.029 m -28.476903,0.029 c -0.20088,0 -0.398761,-0.01 -0.594643,-0.029 v 0 c -2.929242,-0.29782 -5.216868,-2.77133 -5.216868,-5.78352 v 0 c 0,-3.21108 2.602437,-5.81351 5.811511,-5.81351 v 0 h 9.99e-4 c 3.209073,0 5.814509,2.60243 5.814509,5.81351 v 0 c 0,3.01219 -2.290625,5.4857 -5.220865,5.78352 v 0 c -0.195883,0.019 -0.393764,0.029 -0.593644,0.029 v 0 z m -29.662192,-0.029 c -2.931241,-0.29782 -5.217868,-2.77133 -5.217868,-5.78352 v 0 c 0,-3.21108 2.601438,-5.81351 5.811511,-5.81351 v 0 c 3.209074,0 5.814509,2.60243 5.814509,5.81351 v 0 c 0,3.01219 -2.289625,5.4857 -5.219866,5.78352 v 0 c -0.195882,0.019 -0.394763,0.029 -0.594643,0.029 v 0 c -0.19988,0 -0.39876,-0.01 -0.593643,-0.029 m 300.010888,-20.3188 c 0,-3.21207 2.60343,-5.81451 5.81551,-5.81451 v 0 c 3.21007,0 5.81151,2.60244 5.81151,5.81451 v 0 c 0,3.20908 -2.60144,5.81351 -5.81151,5.81351 v 0 c -3.21208,0 -5.81551,-2.60443 -5.81551,-5.81351 m -29.06755,0 c 0,-3.21207 2.60244,-5.81451 5.81351,-5.81451 v 0 c 3.21107,0 5.81751,2.60244 5.81751,5.81451 v 0 c 0,3.20908 -2.60644,5.81351 -5.81751,5.81351 v 0 c -3.21107,0 -5.81351,-2.60443 -5.81351,-5.81351 m -29.07255,0 c 0,-3.21207 2.60244,-5.81451 5.81551,-5.81451 v 0 c 3.21007,0 5.81251,2.60244 5.81251,5.81451 v 0 c 0,3.20908 -2.60244,5.81351 -5.81251,5.81351 v 0 c -3.21307,0 -5.81551,-2.60443 -5.81551,-5.81351 m -29.06755,0 c 0,-3.21207 2.60244,-5.81451 5.81351,-5.81451 v 0 c 3.21107,0 5.81651,2.60244 5.81651,5.81451 v 0 c 0,3.20908 -2.60544,5.81351 -5.81651,5.81351 v 0 c -3.21107,0 -5.81351,-2.60443 -5.81351,-5.81351 m -29.07154,0 c 0,-3.21207 2.60143,-5.81451 5.8155,-5.81451 v 0 c 3.20908,0 5.81252,2.60244 5.81252,5.81451 v 0 c 0,3.20908 -2.60344,5.81351 -5.81252,5.81351 v 0 c -3.21407,0 -5.8155,-2.60443 -5.8155,-5.81351 m -29.06755,0 c 0,-3.21207 2.60243,-5.81451 5.81451,-5.81451 v 0 c 3.20907,0 5.8165,2.60244 5.8165,5.81451 v 0 c 0,3.20908 -2.60743,5.81351 -5.8165,5.81351 v 0 c -3.21208,0 -5.81451,-2.60443 -5.81451,-5.81351 m -29.07255,0 c 0,-3.21207 2.60244,-5.81451 5.81651,-5.81451 v 0 c 3.20907,0 5.81151,2.60244 5.81151,5.81451 v 0 c 0,3.20908 -2.60244,5.81351 -5.81151,5.81351 v 0 c -3.21407,0 -5.81651,-2.60443 -5.81651,-5.81351 m -29.06755,0 c 0,-3.21207 2.60244,-5.81451 5.81451,-5.81451 v 0 c 3.21007,0 5.81651,2.60244 5.81651,5.81451 v 0 c 0,3.20908 -2.60644,5.81351 -5.81651,5.81351 v 0 c -3.21207,0 -5.81451,-2.60443 -5.81451,-5.81351 m -29.071544,0 c 0,-3.21207 2.602437,-5.81451 5.816508,-5.81451 v 0 c 3.209073,0 5.811506,2.60244 5.811506,5.81451 v 0 c 0,3.20908 -2.602433,5.81351 -5.811506,5.81351 v 0 c -3.214071,0 -5.816508,-2.60443 -5.816508,-5.81351 m -29.067549,0 c 0,-3.21207 2.602437,-5.81451 5.814509,-5.81451 v 0 c 3.210073,0 5.816508,2.60244 5.816508,5.81451 v 0 c 0,3.20908 -2.606435,5.81351 -5.816508,5.81351 v 0 c -3.212072,0 -5.814509,-2.60443 -5.814509,-5.81351 m -29.072546,0 c 0,-3.21207 2.602437,-5.81451 5.816508,-5.81451 v 0 c 3.209073,0 5.810511,2.60244 5.810511,5.81451 v 0 c 0,3.20908 -2.601438,5.81351 -5.810511,5.81351 v 0 c -3.214071,0 -5.816508,-2.60443 -5.816508,-5.81351 m -29.0675493,0 c 0,-3.21207 2.6024376,-5.81451 5.8145092,-5.81451 v 0 c 3.2100731,0 5.8165081,2.60244 5.8165081,5.81451 v 0 c 0,3.20908 -2.606435,5.81351 -5.8165081,5.81351 v 0 c -3.2120716,0 -5.8145092,-2.60443 -5.8145092,-5.81351 M 341.93965,350.79089 c -3.21007,0 -5.81151,-2.60144 -5.81151,-5.81351 v 0 c 0,-3.21107 2.60144,-5.81651 5.81151,-5.81651 v 0 h 0.001 c 3.00919,0.001 5.48671,2.28963 5.78453,5.22287 v 0 c 0.021,0.19488 0.03,0.39276 0.03,0.59364 v 0 c 0,0.19988 -0.009,0.39876 -0.03,0.59464 v 0 c -0.29782,2.93224 -2.77534,5.21887 -5.78453,5.21887 v 0 z m -34.88106,-5.81351 c 0,-3.21107 2.60244,-5.81651 5.81251,-5.81651 v 0 c 3.20907,0 5.81551,2.60544 5.81551,5.81651 v 0 c 0,3.21207 -2.60644,5.81351 -5.81551,5.81351 v 0 c -3.21007,0 -5.81251,-2.60144 -5.81251,-5.81351 m -23.25904,5.81351 c -3.21007,0 -5.81151,-2.60144 -5.81151,-5.81351 v 0 c 0,-3.21107 2.60144,-5.81651 5.81151,-5.81651 v 0 h 10e-4 c 3.0092,0.001 5.48671,2.28963 5.78453,5.22287 v 0 c 0.021,0.19488 0.031,0.39276 0.031,0.59364 v 0 c 0,0.19988 -0.01,0.39876 -0.031,0.59464 v 0 c -0.29782,2.93224 -2.77533,5.21887 -5.78453,5.21887 v 0 z m -34.88005,-5.81351 c 0,-3.21107 2.60143,-5.81651 5.81151,-5.81651 v 0 c 3.20907,0 5.8155,2.60544 5.8155,5.81651 v 0 c 0,3.21207 -2.60643,5.81351 -5.8155,5.81351 v 0 c -3.21008,0 -5.81151,-2.60144 -5.81151,-5.81351 m -23.26004,5.81351 c -2.80831,0 -5.15191,-1.99181 -5.69358,-4.64221 v 0 c -0.077,-0.37778 -0.11793,-0.76954 -0.11793,-1.1713 v 0 c 0,-0.40176 0.041,-0.79352 0.11793,-1.1723 v 0 c 0.54167,-2.64941 2.88527,-4.64421 5.69358,-4.64421 v 0 h 0.001 c 3.21007,0.001 5.81551,2.60544 5.81551,5.81651 v 0 c 0,3.21107 -2.60544,5.81351 -5.81551,5.81351 v 0 z m -34.88006,-5.81351 c 0,-3.21107 2.60344,-5.81651 5.81151,-5.81651 v 0 c 3.20907,0 5.81551,2.60544 5.81551,5.81651 v 0 c 0,3.21207 -2.60644,5.81351 -5.81551,5.81351 v 0 c -3.20807,0 -5.81151,-2.60144 -5.81151,-5.81351 m -23.25904,5.81351 c -3.20907,0 -5.81251,-2.60144 -5.81251,-5.81351 v 0 c 0,-3.21107 2.60344,-5.81651 5.81251,-5.81651 v 0 h 10e-4 c 3.20908,0.001 5.81451,2.60544 5.81451,5.81651 v 0 c 0,3.21107 -2.60543,5.81351 -5.81451,5.81351 v 0 z m -34.88006,-5.81351 c 0,-3.21107 2.60244,-5.81651 5.81152,-5.81651 v 0 c 3.20807,0 5.8145,2.60544 5.8145,5.81651 v 0 c 0,3.21207 -2.60643,5.81351 -5.8145,5.81351 v 0 c -3.20908,0 -5.81152,-2.60144 -5.81152,-5.81351 m -23.25903,5.81351 c -3.20907,0 -5.81251,-2.60144 -5.81251,-5.81351 v 0 c 0,-3.21107 2.60344,-5.81651 5.81251,-5.81651 v 0 c 3.21007,0.001 5.81451,2.60544 5.81451,5.81651 v 0 c 0,3.21107 -2.60444,5.81251 -5.81351,5.81351 v 0 z m -34.880061,-5.81351 c 0,-3.21107 2.601438,-5.81651 5.811511,-5.81651 v 0 c 3.208074,0 5.814509,2.60544 5.814509,5.81651 v 0 c 0,3.21207 -2.606435,5.81351 -5.814509,5.81351 v 0 c -3.210073,0 -5.811511,-2.60144 -5.811511,-5.81351 m -23.260035,5.81351 c -3.209074,0 -5.811511,-2.60144 -5.811511,-5.81351 v 0 c 0,-3.21107 2.602437,-5.81651 5.811511,-5.81651 v 0 h 9.99e-4 c 3.209073,0.001 5.814509,2.60544 5.814509,5.81651 v 0 c 0,3.21107 -2.605436,5.81351 -5.814509,5.81351 v 0 z m -34.88006,-5.81351 c 0,-3.21107 2.601438,-5.81651 5.811511,-5.81651 v 0 c 3.209074,0 5.814509,2.60544 5.814509,5.81651 v 0 c 0,3.21207 -2.605435,5.81351 -5.814509,5.81351 v 0 c -3.210073,0 -5.811511,-2.60144 -5.811511,-5.81351 M 321.58987,330.44211 c 0,-3.21008 2.60343,-5.81451 5.81551,-5.81451 v 0 c 3.21007,0 5.81151,2.60443 5.81151,5.81451 v 0 c 0,3.21107 -2.60144,5.81351 -5.81151,5.81351 v 0 c -3.21208,0 -5.81551,-2.60244 -5.81551,-5.81351 m -29.06755,0 c 0,-3.21008 2.60244,-5.81451 5.81351,-5.81451 v 0 c 3.21107,0 5.81751,2.60443 5.81751,5.81451 v 0 c 0,3.21107 -2.60644,5.81351 -5.81751,5.81351 v 0 c -3.21107,0 -5.81351,-2.60244 -5.81351,-5.81351 m -29.07255,0 c 0,-3.21008 2.60244,-5.81451 5.81551,-5.81451 v 0 c 3.21007,0 5.81251,2.60443 5.81251,5.81451 v 0 c 0,3.21107 -2.60244,5.81351 -5.81251,5.81351 v 0 c -3.21307,0 -5.81551,-2.60244 -5.81551,-5.81351 m -29.06755,0 c 0,-3.21008 2.60244,-5.81451 5.81351,-5.81451 v 0 c 3.21107,0 5.81651,2.60443 5.81651,5.81451 v 0 c 0,3.21107 -2.60544,5.81351 -5.81651,5.81351 v 0 c -3.21107,0 -5.81351,-2.60244 -5.81351,-5.81351 m -29.07154,0 c 0,-3.21008 2.60143,-5.81451 5.8155,-5.81451 v 0 c 3.20908,0 5.81252,2.60443 5.81252,5.81451 v 0 c 0,3.21107 -2.60344,5.81351 -5.81252,5.81351 v 0 c -3.21407,0 -5.8155,-2.60244 -5.8155,-5.81351 m -29.06755,0 c 0,-3.21008 2.60243,-5.81451 5.81451,-5.81451 v 0 c 3.20907,0 5.8165,2.60443 5.8165,5.81451 v 0 c 0,3.21107 -2.60743,5.81351 -5.8165,5.81351 v 0 c -3.21208,0 -5.81451,-2.60244 -5.81451,-5.81351 m -29.07255,0 c 0,-3.21008 2.60244,-5.81451 5.81651,-5.81451 v 0 c 3.20907,0 5.81151,2.60443 5.81151,5.81451 v 0 c 0,3.21107 -2.60244,5.81351 -5.81151,5.81351 v 0 c -3.21407,0 -5.81651,-2.60244 -5.81651,-5.81351 m -29.06755,0 c 0,-3.21008 2.60244,-5.81451 5.81451,-5.81451 v 0 c 3.21007,0 5.81651,2.60443 5.81651,5.81451 v 0 c 0,3.21107 -2.60644,5.81351 -5.81651,5.81351 v 0 c -3.21207,0 -5.81451,-2.60244 -5.81451,-5.81351 m -29.071544,0 c 0,-3.21008 2.602437,-5.81451 5.816508,-5.81451 v 0 c 3.209073,0 5.811506,2.60443 5.811506,5.81451 v 0 c 0,3.21107 -2.602433,5.81351 -5.811506,5.81351 v 0 c -3.214071,0 -5.816508,-2.60244 -5.816508,-5.81351 m -29.067549,0 c 0,-3.21008 2.602437,-5.81451 5.814509,-5.81451 v 0 c 3.210073,0 5.816508,2.60443 5.816508,5.81451 v 0 c 0,3.21107 -2.606435,5.81351 -5.816508,5.81351 v 0 c -3.212072,0 -5.814509,-2.60244 -5.814509,-5.81351 m -29.072546,0 c 0,-3.21008 2.602437,-5.81451 5.816508,-5.81451 v 0 c 3.209073,0 5.810511,2.60443 5.810511,5.81451 v 0 c 0,3.21107 -2.601438,5.81351 -5.810511,5.81351 v 0 c -3.214071,0 -5.816508,-2.60244 -5.816508,-5.81351 m -29.0675493,0 c 0,-3.21008 2.6024376,-5.81451 5.8145092,-5.81451 v 0 c 3.2100731,0 5.8165081,2.60443 5.8165081,5.81451 v 0 c 0,3.21107 -2.606435,5.81351 -5.8165081,5.81351 v 0 c -3.2120716,0 -5.8145092,-2.60244 -5.8145092,-5.81351 M 341.93965,321.71934 c -2.80831,0 -5.15291,-1.9898 -5.69358,-4.64121 v 0 c -0.078,-0.37877 -0.11793,-0.77054 -0.11793,-1.1723 v 0 c 0,-2.80831 1.9918,-5.1529 4.64021,-5.69558 v 0 c 0.37778,-0.0769 0.77054,-0.11793 1.1713,-0.11793 v 0 h 0.001 c 0.40176,0 0.79252,0.041 1.1703,0.11793 v 0 c 2.46052,0.5037 4.35638,2.56146 4.61423,5.10194 v 0 c 0.021,0.19488 0.03,0.39276 0.03,0.59364 v 0 c 0,0.20088 -0.009,0.39876 -0.03,0.59564 v 0 c -0.02,0.19489 -0.048,0.38777 -0.088,0.57666 v 0 c -0.54268,2.65041 -2.88927,4.64121 -5.69658,4.64121 v 0 z m -34.76313,-4.64121 c -0.0759,-0.37877 -0.11793,-0.77054 -0.11793,-1.1723 v 0 c 0,-2.80831 1.9928,-5.1529 4.64221,-5.69558 v 0 c 0.37678,-0.0769 0.76954,-0.11793 1.1703,-0.11793 v 0 c 0.40176,0 0.79253,0.041 1.1713,0.11793 v 0 c 2.64941,0.54268 4.64421,2.88727 4.64421,5.69558 v 0 c 0,0.40176 -0.042,0.79353 -0.11893,1.1723 v 0 c -0.54267,2.65141 -2.88826,4.64121 -5.69658,4.64121 v 0 c -2.80831,0 -5.15191,-1.9898 -5.69458,-4.64121 m -23.37697,4.64121 c -2.80831,0 -5.1519,-1.9898 -5.69358,-4.64121 v 0 c -0.077,-0.37877 -0.11793,-0.77054 -0.11793,-1.1723 v 0 c 0,-2.80831 1.99181,-5.1529 4.64122,-5.69558 v 0 c 0.37777,-0.0769 0.76954,-0.11793 1.17029,-0.11793 v 0 h 10e-4 c 0.40176,0 0.79253,0.041 1.1703,0.11793 v 0 c 2.46052,0.5037 4.35739,2.56146 4.61423,5.10194 v 0 c 0.021,0.19488 0.031,0.39276 0.031,0.59364 v 0 c 0,0.20088 -0.01,0.39876 -0.031,0.59564 v 0 c -0.02,0.19489 -0.048,0.38777 -0.0879,0.57666 v 0 c -0.54267,2.65041 -2.88826,4.64121 -5.69658,4.64121 v 0 z m -34.76213,-4.64121 c -0.077,-0.37877 -0.11792,-0.77054 -0.11792,-1.1723 v 0 c 0,-2.80831 1.9918,-5.1529 4.64021,-5.69558 v 0 c 0.37877,-0.0769 0.77054,-0.11793 1.1713,-0.11793 v 0 c 0.40176,0 0.79252,0.041 1.17129,0.11793 v 0 c 2.64941,0.54268 4.64421,2.88727 4.64421,5.69558 v 0 c 0,0.40176 -0.042,0.79353 -0.11792,1.1723 v 0 c -0.54368,2.65141 -2.88927,4.64121 -5.69758,4.64121 v 0 c -2.80832,0 -5.15191,-1.9898 -5.69359,-4.64121 m -23.37796,4.64121 c -2.80831,0 -5.15191,-1.9898 -5.69358,-4.64121 v 0 c -0.077,-0.37877 -0.11793,-0.77054 -0.11793,-1.1723 v 0 c 0,-0.40176 0.041,-0.79252 0.11793,-1.17129 v 0 c 0.46472,-2.27064 2.25364,-4.05957 4.52228,-4.52429 v 0 c 0.37878,-0.0769 0.77054,-0.11793 1.1713,-0.11793 v 0 h 0.001 c 0.40176,0 0.79252,0.041 1.1703,0.11793 v 0 c 2.65041,0.54268 4.64521,2.88727 4.64521,5.69558 v 0 c 0,0.40176 -0.042,0.79353 -0.11793,1.1723 v 0 c -0.54368,2.65041 -2.88927,4.64121 -5.69758,4.64121 v 0 z m -34.76213,-4.64121 c -0.077,-0.37877 -0.11793,-0.77054 -0.11793,-1.1723 v 0 c 0,-2.80831 1.9938,-5.1529 4.64021,-5.69558 v 0 c 0.37878,-0.0769 0.77054,-0.11793 1.1713,-0.11793 v 0 c 0.40076,0 0.79352,0.041 1.1723,0.11793 v 0 c 2.64741,0.54268 4.64321,2.88727 4.64321,5.69558 v 0 c 0,0.40176 -0.041,0.79353 -0.11793,1.1723 v 0 c -0.54267,2.65141 -2.88926,4.64121 -5.69758,4.64121 v 0 c -2.80731,0 -5.15191,-1.9898 -5.69358,-4.64121 m -23.37697,4.64121 c -2.80831,0 -5.1519,-1.9898 -5.69358,-4.64121 v 0 c -0.078,-0.37877 -0.11893,-0.77054 -0.11893,-1.1723 v 0 c 0,-2.80831 1.99381,-5.1529 4.64122,-5.69558 v 0 c 0.37777,-0.0769 0.77053,-0.11793 1.17129,-0.11793 v 0 h 10e-4 c 0.40076,0 0.79253,0.041 1.1703,0.11793 v 0 c 2.64941,0.54268 4.64421,2.88727 4.64421,5.69558 v 0 c 0,0.40176 -0.04,0.79353 -0.11693,1.1723 v 0 c -0.54367,2.65041 -2.88926,4.64121 -5.69758,4.64121 v 0 z m -34.76213,-4.64121 c -0.077,-0.37877 -0.11793,-0.77054 -0.11793,-1.1723 v 0 c 0,-2.80831 1.99181,-5.1529 4.64022,-5.69558 v 0 c 0.37877,-0.0769 0.76954,-0.11793 1.1713,-0.11793 v 0 c 0.40076,0 0.79352,0.041 1.17129,0.11793 v 0 c 2.64841,0.54268 4.64321,2.88727 4.64321,5.69558 v 0 c 0,0.40176 -0.04,0.79353 -0.11792,1.1723 v 0 c -0.54268,2.65141 -2.88827,4.64121 -5.69658,4.64121 v 0 c -2.80832,0 -5.15091,-1.9898 -5.69359,-4.64121 m -23.37696,4.64121 c -2.80832,0 -5.15191,-1.9898 -5.69358,-4.64121 v 0 c -0.078,-0.37877 -0.11893,-0.77054 -0.11893,-1.1723 v 0 c 0,-2.80831 1.9928,-5.1529 4.64121,-5.69558 v 0 c 0.37777,-0.0769 0.77054,-0.11793 1.1713,-0.11793 v 0 c 0.40076,0 0.79352,0.041 1.1703,0.11793 v 0 c 2.64941,0.54268 4.64421,2.88727 4.64421,5.69558 v 0 c 0,0.40176 -0.04,0.79353 -0.11793,1.1723 v 0 c -0.54168,2.65041 -2.88727,4.64021 -5.69558,4.64121 v 0 z m -34.762132,-4.64121 c -0.07795,-0.37877 -0.117929,-0.77054 -0.117929,-1.1723 v 0 c 0,-2.80831 1.991804,-5.1529 4.640214,-5.69558 v 0 c 0.378773,-0.0769 0.769538,-0.11793 1.171297,-0.11793 v 0 c 0.40076,0 0.792524,0.041 1.171297,0.11793 v 0 c 2.64841,0.54268 4.643212,2.88727 4.643212,5.69558 v 0 c 0,0.40176 -0.04098,0.79353 -0.117929,1.1723 v 0 c -0.542674,2.65141 -2.889265,4.64121 -5.69658,4.64121 v 0 c -2.808314,0 -5.151907,-1.9898 -5.693582,-4.64121 m -23.377964,4.64121 c -2.808314,0 -5.151907,-1.9898 -5.693582,-4.64121 v 0 c -0.07795,-0.37877 -0.117929,-0.77054 -0.117929,-1.1723 v 0 c 0,-2.80831 1.991804,-5.1529 4.640214,-5.69558 v 0 c 0.378772,-0.0769 0.769538,-0.11793 1.171297,-0.11793 v 0 h 9.99e-4 c 0.400759,0 0.792524,0.041 1.170297,0.11793 v 0 c 2.64941,0.54268 4.644212,2.88727 4.644212,5.69558 v 0 c 0,0.40176 -0.03998,0.79353 -0.117929,1.1723 v 0 c -0.541675,2.65041 -2.888266,4.64121 -5.69658,4.64121 v 0 z m -34.762131,-4.64121 c -0.07795,-0.37877 -0.117929,-0.77054 -0.117929,-1.1723 v 0 c 0,-2.80831 1.991804,-5.1529 4.640214,-5.69558 v 0 c 0.378773,-0.0769 0.770538,-0.11793 1.171297,-0.11793 v 0 c 0.40076,0 0.792524,0.041 1.171297,0.11793 v 0 c 2.64841,0.54268 4.643212,2.88727 4.643212,5.69558 v 0 c 0,0.40176 -0.03998,0.79353 -0.117929,1.1723 v 0 c -0.542674,2.65141 -2.889265,4.64121 -5.69658,4.64121 v 0 c -2.808314,0 -5.151907,-1.9898 -5.693582,-4.64121 M 321.58987,301.37056 c 0,-3.21207 2.60343,-5.81451 5.81551,-5.81451 v 0 c 3.21007,0 5.81151,2.60244 5.81151,5.81451 v 0 c 0,3.20907 -2.60144,5.81351 -5.81151,5.81351 v 0 c -3.21208,0 -5.81551,-2.60444 -5.81551,-5.81351 m -29.06755,0 c 0,-3.21207 2.60244,-5.81451 5.81351,-5.81451 v 0 c 3.21107,0 5.81751,2.60244 5.81751,5.81451 v 0 c 0,3.20907 -2.60644,5.81351 -5.81751,5.81351 v 0 c -3.21107,0 -5.81351,-2.60444 -5.81351,-5.81351 m -29.07255,0 c 0,-3.21207 2.60244,-5.81451 5.81551,-5.81451 v 0 c 3.21007,0 5.81251,2.60244 5.81251,5.81451 v 0 c 0,3.20907 -2.60244,5.81351 -5.81251,5.81351 v 0 c -3.21307,0 -5.81551,-2.60444 -5.81551,-5.81351 m -29.06755,0 c 0,-3.21207 2.60244,-5.81451 5.81351,-5.81451 v 0 c 3.21107,0 5.81651,2.60244 5.81651,5.81451 v 0 c 0,3.20907 -2.60544,5.81351 -5.81651,5.81351 v 0 c -3.21107,0 -5.81351,-2.60444 -5.81351,-5.81351 m -29.07154,0 c 0,-3.21207 2.60143,-5.81451 5.8155,-5.81451 v 0 c 3.20908,0 5.81252,2.60244 5.81252,5.81451 v 0 c 0,3.20907 -2.60344,5.81351 -5.81252,5.81351 v 0 c -3.21407,0 -5.8155,-2.60444 -5.8155,-5.81351 m -29.06755,0 c 0,-3.21207 2.60243,-5.81451 5.81451,-5.81451 v 0 c 3.20907,0 5.8165,2.60244 5.8165,5.81451 v 0 c 0,3.20907 -2.60743,5.81351 -5.8165,5.81351 v 0 c -3.21208,0 -5.81451,-2.60444 -5.81451,-5.81351 m -29.07255,0 c 0,-3.21207 2.60244,-5.81451 5.81651,-5.81451 v 0 c 3.20907,0 5.81151,2.60244 5.81151,5.81451 v 0 c 0,3.20907 -2.60244,5.81351 -5.81151,5.81351 v 0 c -3.21407,0 -5.81651,-2.60444 -5.81651,-5.81351 m -29.06755,0 c 0,-3.21207 2.60244,-5.81451 5.81451,-5.81451 v 0 c 3.21007,0 5.81651,2.60244 5.81651,5.81451 v 0 c 0,3.20907 -2.60644,5.81351 -5.81651,5.81351 v 0 c -3.21207,0 -5.81451,-2.60444 -5.81451,-5.81351 m -29.071544,0 c 0,-3.21207 2.602437,-5.81451 5.816508,-5.81451 v 0 c 3.209073,0 5.811506,2.60244 5.811506,5.81451 v 0 c 0,3.20907 -2.602433,5.81351 -5.811506,5.81351 v 0 c -3.214071,0 -5.816508,-2.60444 -5.816508,-5.81351 m -29.067549,0 c 0,-3.21207 2.602437,-5.81451 5.814509,-5.81451 v 0 c 3.210073,0 5.816508,2.60244 5.816508,5.81451 v 0 c 0,3.20907 -2.606435,5.81351 -5.816508,5.81351 v 0 c -3.212072,0 -5.814509,-2.60444 -5.814509,-5.81351 m -29.072546,0 c 0,-3.21207 2.602437,-5.81451 5.816508,-5.81451 v 0 c 3.209073,0 5.810511,2.60244 5.810511,5.81451 v 0 c 0,3.20907 -2.601438,5.81351 -5.810511,5.81351 v 0 c -3.214071,0 -5.816508,-2.60444 -5.816508,-5.81351 m -29.0675493,0 c 0,-3.21207 2.6024376,-5.81451 5.8145092,-5.81451 v 0 c 3.2100731,0 5.8165081,2.60244 5.8165081,5.81451 v 0 c 0,3.20907 -2.606435,5.81351 -5.8165081,5.81351 v 0 c -3.2120716,0 -5.8145092,-2.60444 -5.8145092,-5.81351 M 341.93965,292.6478 c -3.21007,0 -5.81151,-2.60144 -5.81151,-5.81351 v 0 c 0,-3.21108 2.60144,-5.81651 5.81151,-5.81651 v 0 h 0.001 c 3.00919,10e-4 5.48671,2.28962 5.78453,5.22286 v 0 c 0.021,0.19489 0.03,0.39277 0.03,0.59365 v 0 c 0,0.20088 -0.009,0.39876 -0.03,0.59464 v 0 c -0.29782,2.93224 -2.77534,5.21887 -5.78453,5.21887 v 0 z m -34.88106,-5.81351 c 0,-3.21108 2.60244,-5.81651 5.81251,-5.81651 v 0 c 3.20907,0 5.81551,2.60543 5.81551,5.81651 v 0 c 0,3.21207 -2.60644,5.81351 -5.81551,5.81351 v 0 c -3.21007,0 -5.81251,-2.60144 -5.81251,-5.81351 m -23.25904,5.81351 c -3.21007,0 -5.81151,-2.60144 -5.81151,-5.81351 v 0 c 0,-3.21108 2.60144,-5.81651 5.81151,-5.81651 v 0 h 10e-4 c 3.0092,10e-4 5.48671,2.28962 5.78453,5.22286 v 0 c 0.021,0.19489 0.031,0.39277 0.031,0.59365 v 0 c 0,0.20088 -0.01,0.39876 -0.031,0.59464 v 0 c -0.29782,2.93224 -2.77533,5.21887 -5.78453,5.21887 v 0 z m -34.88005,-5.81351 c 0,-3.21108 2.60143,-5.81651 5.81151,-5.81651 v 0 c 3.20907,0 5.8155,2.60543 5.8155,5.81651 v 0 c 0,3.21207 -2.60643,5.81351 -5.8155,5.81351 v 0 c -3.21008,0 -5.81151,-2.60144 -5.81151,-5.81351 m -23.26004,5.81351 c -2.80831,0 -5.15191,-1.99181 -5.69358,-4.64122 v 0 c -0.077,-0.37777 -0.11793,-0.77054 -0.11793,-1.17229 v 0 c 0,-0.40176 0.041,-0.79353 0.11793,-1.1723 v 0 c 0.54167,-2.64941 2.88527,-4.64421 5.69358,-4.64421 v 0 h 0.001 c 3.21007,10e-4 5.81551,2.60643 5.81551,5.81651 v 0 c 0,3.21107 -2.60544,5.81351 -5.81551,5.81351 v 0 z m -34.88006,-5.81351 c 0,-3.21108 2.60344,-5.81651 5.81151,-5.81651 v 0 c 3.20907,0 5.81551,2.60543 5.81551,5.81651 v 0 c 0,3.21207 -2.60644,5.81351 -5.81551,5.81351 v 0 c -3.20807,0 -5.81151,-2.60144 -5.81151,-5.81351 m -23.25904,5.81351 c -3.20907,0 -5.81251,-2.60144 -5.81251,-5.81351 v 0 c 0,-3.21108 2.60344,-5.81651 5.81251,-5.81651 v 0 h 10e-4 c 3.20908,10e-4 5.81451,2.60643 5.81451,5.81651 v 0 c 0,3.21107 -2.60543,5.81351 -5.81451,5.81351 v 0 z m -34.88006,-5.81351 c 0,-3.21108 2.60244,-5.81651 5.81152,-5.81651 v 0 c 3.20807,0 5.8145,2.60543 5.8145,5.81651 v 0 c 0,3.21207 -2.60643,5.81351 -5.8145,5.81351 v 0 c -3.20908,0 -5.81152,-2.60144 -5.81152,-5.81351 m -23.25903,5.81351 c -3.20907,0 -5.81251,-2.60144 -5.81251,-5.81351 v 0 c 0,-3.21108 2.60344,-5.81651 5.81251,-5.81651 v 0 c 3.21007,0.002 5.81451,2.60643 5.81451,5.81651 v 0 c 0,3.21107 -2.60444,5.81351 -5.81351,5.81351 v 0 z m -34.880061,-5.81351 c 0,-3.21108 2.601438,-5.81651 5.811511,-5.81651 v 0 c 3.208074,0 5.814509,2.60543 5.814509,5.81651 v 0 c 0,3.21207 -2.606435,5.81351 -5.814509,5.81351 v 0 c -3.210073,0 -5.811511,-2.60144 -5.811511,-5.81351 m -23.260035,5.81351 c -3.209074,0 -5.811511,-2.60144 -5.811511,-5.81351 v 0 c 0,-3.21108 2.602437,-5.81651 5.811511,-5.81651 v 0 h 9.99e-4 c 3.209073,10e-4 5.814509,2.60643 5.814509,5.81651 v 0 c 0,3.21107 -2.605436,5.81351 -5.814509,5.81351 v 0 z m -34.88006,-5.81351 c 0,-3.21108 2.601438,-5.81651 5.811511,-5.81651 v 0 c 3.209074,0 5.814509,2.60543 5.814509,5.81651 v 0 c 0,3.21207 -2.605435,5.81351 -5.814509,5.81351 v 0 c -3.210073,0 -5.811511,-2.60144 -5.811511,-5.81351 M 321.58987,272.29901 c 0,-3.20907 2.60343,-5.81451 5.81551,-5.81451 v 0 c 3.21007,0 5.81151,2.60544 5.81151,5.81451 v 0 c 0,3.21107 -2.60144,5.81351 -5.81151,5.81351 v 0 c -3.21208,0 -5.81551,-2.60244 -5.81551,-5.81351 m -29.06755,0 c 0,-3.20907 2.60244,-5.81451 5.81351,-5.81451 v 0 c 3.21107,0 5.81751,2.60544 5.81751,5.81451 v 0 c 0,3.21107 -2.60644,5.81351 -5.81751,5.81351 v 0 c -3.21107,0 -5.81351,-2.60244 -5.81351,-5.81351 m -29.07255,0 c 0,-3.20907 2.60244,-5.81451 5.81551,-5.81451 v 0 c 3.21007,0 5.81251,2.60544 5.81251,5.81451 v 0 c 0,3.21107 -2.60244,5.81351 -5.81251,5.81351 v 0 c -3.21307,0 -5.81551,-2.60244 -5.81551,-5.81351 m -29.06755,0 c 0,-3.20907 2.60244,-5.81451 5.81351,-5.81451 v 0 c 3.21107,0 5.81651,2.60544 5.81651,5.81451 v 0 c 0,3.21107 -2.60544,5.81351 -5.81651,5.81351 v 0 c -3.21107,0 -5.81351,-2.60244 -5.81351,-5.81351 m -29.07154,0 c 0,-3.20907 2.60143,-5.81451 5.8155,-5.81451 v 0 c 3.20908,0 5.81252,2.60544 5.81252,5.81451 v 0 c 0,3.21107 -2.60344,5.81351 -5.81252,5.81351 v 0 c -3.21407,0 -5.8155,-2.60244 -5.8155,-5.81351 m -29.06755,0 c 0,-3.20907 2.60243,-5.81451 5.81451,-5.81451 v 0 c 3.20907,0 5.8165,2.60544 5.8165,5.81451 v 0 c 0,3.21107 -2.60743,5.81351 -5.8165,5.81351 v 0 c -3.21208,0 -5.81451,-2.60244 -5.81451,-5.81351 m -29.07255,0 c 0,-3.20907 2.60244,-5.81451 5.81651,-5.81451 v 0 c 3.20907,0 5.81151,2.60544 5.81151,5.81451 v 0 c 0,3.21107 -2.60244,5.81351 -5.81151,5.81351 v 0 c -3.21407,0 -5.81651,-2.60244 -5.81651,-5.81351 m -29.06755,0 c 0,-3.20907 2.60244,-5.81451 5.81451,-5.81451 v 0 c 3.21007,0 5.81651,2.60544 5.81651,5.81451 v 0 c 0,3.21107 -2.60644,5.81351 -5.81651,5.81351 v 0 c -3.21207,0 -5.81451,-2.60244 -5.81451,-5.81351 m -29.071544,0 c 0,-3.20907 2.602437,-5.81451 5.816508,-5.81451 v 0 c 3.209073,0 5.811506,2.60544 5.811506,5.81451 v 0 c 0,3.21107 -2.602433,5.81351 -5.811506,5.81351 v 0 c -3.214071,0 -5.816508,-2.60244 -5.816508,-5.81351 m -29.067549,0 c 0,-3.20907 2.602437,-5.81451 5.814509,-5.81451 v 0 c 3.210073,0 5.816508,2.60544 5.816508,5.81451 v 0 c 0,3.21107 -2.606435,5.81351 -5.816508,5.81351 v 0 c -3.212072,0 -5.814509,-2.60244 -5.814509,-5.81351 m -29.072546,0 c 0,-3.20907 2.602437,-5.81451 5.816508,-5.81451 v 0 c 3.209073,0 5.810511,2.60544 5.810511,5.81451 v 0 c 0,3.21107 -2.601438,5.81351 -5.810511,5.81351 v 0 c -3.214071,0 -5.816508,-2.60244 -5.816508,-5.81351 m -29.0675493,0 c 0,-3.20907 2.6024376,-5.81451 5.8145092,-5.81451 v 0 c 3.2100731,0 5.8165081,2.60544 5.8165081,5.81451 v 0 c 0,3.21107 -2.606435,5.81351 -5.8165081,5.81351 v 0 c -3.2120716,0 -5.8145092,-2.60244 -5.8145092,-5.81351 M 341.93965,263.57725 c -2.80831,0 -5.15291,-1.99081 -5.69358,-4.64122 v 0 c -0.078,-0.37877 -0.11793,-0.77153 -0.11793,-1.17329 v 0 c 0,-2.80831 1.9918,-5.15291 4.64021,-5.69558 v 0 c 0.37778,-0.077 0.77054,-0.11793 1.1713,-0.11793 v 0 h 0.001 c 0.40176,0 0.79252,0.041 1.1703,0.11793 v 0 c 2.46052,0.5037 4.35638,2.56146 4.61423,5.10194 v 0 c 0.021,0.19488 0.03,0.39276 0.03,0.59364 v 0 c 0,0.20188 -0.009,0.39976 -0.03,0.59564 v 0 c -0.02,0.19488 -0.048,0.38877 -0.088,0.57765 v 0 c -0.54268,2.64941 -2.88927,4.64122 -5.69658,4.64122 v 0 z m -34.76313,-4.64122 c -0.0759,-0.37877 -0.11793,-0.77153 -0.11793,-1.17329 v 0 c 0,-2.80831 1.9928,-5.15291 4.64221,-5.69558 v 0 c 0.37678,-0.077 0.76954,-0.11793 1.1703,-0.11793 v 0 c 0.40176,0 0.79253,0.041 1.1713,0.11793 v 0 c 2.64941,0.54267 4.64421,2.88727 4.64421,5.69558 v 0 c 0,0.40176 -0.042,0.79452 -0.11893,1.17329 v 0 c -0.54267,2.65041 -2.88826,4.64122 -5.69658,4.64122 v 0 c -2.80831,0 -5.15191,-1.99081 -5.69458,-4.64122 m -23.37697,4.64122 c -2.80831,0 -5.1519,-1.99081 -5.69358,-4.64122 v 0 c -0.077,-0.37877 -0.11793,-0.77153 -0.11793,-1.17329 v 0 c 0,-2.80831 1.99181,-5.15291 4.64122,-5.69558 v 0 c 0.37777,-0.077 0.76954,-0.11793 1.17029,-0.11793 v 0 h 10e-4 c 0.40176,0 0.79253,0.041 1.1703,0.11793 v 0 c 2.46052,0.5037 4.35739,2.56146 4.61423,5.10194 v 0 c 0.021,0.19488 0.031,0.39276 0.031,0.59364 v 0 c 0,0.20188 -0.01,0.39976 -0.031,0.59564 v 0 c -0.02,0.19488 -0.048,0.38877 -0.0879,0.57765 v 0 c -0.54267,2.64941 -2.88826,4.64122 -5.69658,4.64122 v 0 z m -34.76213,-4.64122 c -0.077,-0.37877 -0.11792,-0.77153 -0.11792,-1.17329 v 0 c 0,-2.80831 1.9918,-5.15291 4.64021,-5.69558 v 0 c 0.37877,-0.077 0.77054,-0.11793 1.1713,-0.11793 v 0 c 0.40176,0 0.79252,0.041 1.17129,0.11793 v 0 c 2.64941,0.54267 4.64421,2.88727 4.64421,5.69558 v 0 c 0,0.40176 -0.042,0.79452 -0.11792,1.17329 v 0 c -0.54368,2.65041 -2.88927,4.64122 -5.69758,4.64122 v 0 c -2.80832,0 -5.15191,-1.99081 -5.69359,-4.64122 m -23.37796,4.64122 c -2.80831,0 -5.15191,-1.99081 -5.69358,-4.64122 v 0 c -0.077,-0.37877 -0.11793,-0.77153 -0.11793,-1.17329 v 0 c 0,-0.40076 0.041,-0.79252 0.11793,-1.1713 v 0 c 0.46472,-2.26963 2.25364,-4.05856 4.52228,-4.52428 v 0 c 0.37878,-0.077 0.77054,-0.11793 1.1713,-0.11793 v 0 h 0.001 c 0.40176,0 0.79252,0.041 1.1703,0.11793 v 0 c 2.65041,0.54267 4.64521,2.88727 4.64521,5.69558 v 0 c 0,0.40176 -0.042,0.79452 -0.11793,1.17329 v 0 c -0.54368,2.64941 -2.88927,4.64122 -5.69758,4.64122 v 0 z m -34.76213,-4.64122 c -0.077,-0.37877 -0.11793,-0.77153 -0.11793,-1.17329 v 0 c 0,-2.80831 1.9938,-5.15291 4.64021,-5.69558 v 0 c 0.37878,-0.077 0.77054,-0.11793 1.1713,-0.11793 v 0 c 0.40076,0 0.79352,0.041 1.1723,0.11793 v 0 c 2.64741,0.54267 4.64321,2.88727 4.64321,5.69558 v 0 c 0,0.40176 -0.041,0.79452 -0.11793,1.17329 v 0 c -0.54267,2.65041 -2.88926,4.64122 -5.69758,4.64122 v 0 c -2.80731,0 -5.15191,-1.99081 -5.69358,-4.64122 m -23.37697,4.64122 c -2.80831,0 -5.1519,-1.99081 -5.69358,-4.64122 v 0 c -0.078,-0.37877 -0.11893,-0.77153 -0.11893,-1.17329 v 0 c 0,-2.80831 1.99381,-5.15291 4.64122,-5.69558 v 0 c 0.37777,-0.077 0.77053,-0.11793 1.17129,-0.11793 v 0 h 10e-4 c 0.40076,0 0.79253,0.041 1.1703,0.11793 v 0 c 2.64941,0.54267 4.64421,2.88727 4.64421,5.69558 v 0 c 0,0.40176 -0.04,0.79452 -0.11693,1.17329 v 0 c -0.54367,2.64941 -2.88926,4.64122 -5.69758,4.64122 v 0 z m -34.76213,-4.64122 c -0.077,-0.37877 -0.11793,-0.77153 -0.11793,-1.17329 v 0 c 0,-2.80831 1.99181,-5.15291 4.64022,-5.69558 v 0 c 0.37877,-0.077 0.76954,-0.11793 1.1713,-0.11793 v 0 c 0.40076,0 0.79352,0.041 1.17129,0.11793 v 0 c 2.64841,0.54267 4.64321,2.88727 4.64321,5.69558 v 0 c 0,0.40176 -0.04,0.79452 -0.11792,1.17329 v 0 c -0.54268,2.65041 -2.88827,4.64122 -5.69658,4.64122 v 0 c -2.80832,0 -5.15091,-1.99081 -5.69359,-4.64122 m -23.37696,4.64122 c -2.80832,0 -5.15191,-1.99081 -5.69358,-4.64122 v 0 c -0.078,-0.37877 -0.11893,-0.77153 -0.11893,-1.17329 v 0 c 0,-2.80831 1.9928,-5.15291 4.64121,-5.69558 v 0 c 0.37777,-0.077 0.77054,-0.11793 1.1713,-0.11793 v 0 c 0.40076,0 0.79352,0.041 1.1703,0.11793 v 0 c 2.64941,0.54267 4.64421,2.88727 4.64421,5.69558 v 0 c 0,0.40176 -0.04,0.79452 -0.11793,1.17329 v 0 c -0.54168,2.64941 -2.88727,4.64022 -5.69558,4.64122 v 0 z m -34.762132,-4.64122 c -0.07795,-0.37877 -0.117929,-0.77153 -0.117929,-1.17329 v 0 c 0,-2.80831 1.991804,-5.15291 4.640214,-5.69558 v 0 c 0.378773,-0.077 0.769538,-0.11793 1.171297,-0.11793 v 0 c 0.40076,0 0.792524,0.041 1.171297,0.11793 v 0 c 2.64841,0.54267 4.643212,2.88727 4.643212,5.69558 v 0 c 0,0.40176 -0.04098,0.79452 -0.117929,1.17329 v 0 c -0.542674,2.65041 -2.889265,4.64122 -5.69658,4.64122 v 0 c -2.808314,0 -5.151907,-1.99081 -5.693582,-4.64122 m -23.377964,4.64122 c -2.808314,0 -5.151907,-1.99081 -5.693582,-4.64122 v 0 c -0.07795,-0.37877 -0.117929,-0.77153 -0.117929,-1.17329 v 0 c 0,-2.80831 1.991804,-5.15291 4.640214,-5.69558 v 0 c 0.378772,-0.077 0.769538,-0.11793 1.171297,-0.11793 v 0 h 9.99e-4 c 0.400759,0 0.792524,0.041 1.170297,0.11793 v 0 c 2.64941,0.54267 4.644212,2.88727 4.644212,5.69558 v 0 c 0,0.40176 -0.03998,0.79452 -0.117929,1.17329 v 0 c -0.541675,2.64941 -2.888266,4.64122 -5.69658,4.64122 v 0 z m -34.762131,-4.64122 c -0.07795,-0.37877 -0.117929,-0.77153 -0.117929,-1.17329 v 0 c 0,-2.80831 1.991804,-5.15291 4.640214,-5.69558 v 0 c 0.378773,-0.077 0.770538,-0.11793 1.171297,-0.11793 v 0 c 0.40076,0 0.792524,0.041 1.171297,0.11793 v 0 c 2.64841,0.54267 4.643212,2.88727 4.643212,5.69558 v 0 c 0,0.40176 -0.03998,0.79452 -0.117929,1.17329 v 0 c -0.542674,2.65041 -2.889265,4.64122 -5.69658,4.64122 v 0 c -2.808314,0 -5.151907,-1.99081 -5.693582,-4.64122 M 321.58987,243.22747 c 0,-3.21208 2.60343,-5.81451 5.81551,-5.81451 v 0 c 3.21007,0 5.81151,2.60243 5.81151,5.81451 v 0 c 0,3.20907 -2.60144,5.8145 -5.81151,5.8145 v 0 c -3.21208,0 -5.81551,-2.60543 -5.81551,-5.8145 m -29.06755,0 c 0,-3.21208 2.60244,-5.81451 5.81351,-5.81451 v 0 c 3.21107,0 5.81751,2.60243 5.81751,5.81451 v 0 c 0,3.20907 -2.60644,5.8145 -5.81751,5.8145 v 0 c -3.21107,0 -5.81351,-2.60543 -5.81351,-5.8145 m -29.07255,0 c 0,-3.21208 2.60244,-5.81451 5.81551,-5.81451 v 0 c 3.21007,0 5.81251,2.60243 5.81251,5.81451 v 0 c 0,3.20907 -2.60244,5.8145 -5.81251,5.8145 v 0 c -3.21307,0 -5.81551,-2.60543 -5.81551,-5.8145 m -29.06755,0 c 0,-3.21208 2.60244,-5.81451 5.81351,-5.81451 v 0 c 3.21107,0 5.81651,2.60243 5.81651,5.81451 v 0 c 0,3.20907 -2.60544,5.8145 -5.81651,5.8145 v 0 c -3.21107,0 -5.81351,-2.60543 -5.81351,-5.8145 m -29.07154,0 c 0,-3.21208 2.60143,-5.81451 5.8155,-5.81451 v 0 c 3.20908,0 5.81252,2.60243 5.81252,5.81451 v 0 c 0,3.20907 -2.60344,5.8145 -5.81252,5.8145 v 0 c -3.21407,0 -5.8155,-2.60543 -5.8155,-5.8145 m -29.06755,0 c 0,-3.21208 2.60243,-5.81451 5.81451,-5.81451 v 0 c 3.20907,0 5.8165,2.60243 5.8165,5.81451 v 0 c 0,3.20907 -2.60743,5.8145 -5.8165,5.8145 v 0 c -3.21208,0 -5.81451,-2.60543 -5.81451,-5.8145 m -29.07255,0 c 0,-3.21208 2.60244,-5.81451 5.81651,-5.81451 v 0 c 3.20907,0 5.81151,2.60243 5.81151,5.81451 v 0 c 0,3.20907 -2.60244,5.8145 -5.81151,5.8145 v 0 c -3.21407,0 -5.81651,-2.60543 -5.81651,-5.8145 m -29.06755,0 c 0,-3.21208 2.60244,-5.81451 5.81451,-5.81451 v 0 c 3.21007,0 5.81651,2.60243 5.81651,5.81451 v 0 c 0,3.20907 -2.60644,5.8145 -5.81651,5.8145 v 0 c -3.21207,0 -5.81451,-2.60543 -5.81451,-5.8145 m -29.071544,0 c 0,-3.21208 2.602437,-5.81451 5.816508,-5.81451 v 0 c 3.209073,0 5.811506,2.60243 5.811506,5.81451 v 0 c 0,3.20907 -2.602433,5.8145 -5.811506,5.8145 v 0 c -3.214071,0 -5.816508,-2.60543 -5.816508,-5.8145 m -29.067549,0 c 0,-3.21208 2.602437,-5.81451 5.814509,-5.81451 v 0 c 3.210073,0 5.816508,2.60243 5.816508,5.81451 v 0 c 0,3.20907 -2.606435,5.8145 -5.816508,5.8145 v 0 c -3.212072,0 -5.814509,-2.60543 -5.814509,-5.8145 m -29.072546,0 c 0,-3.21208 2.602437,-5.81451 5.816508,-5.81451 v 0 c 3.209073,0 5.810511,2.60243 5.810511,5.81451 v 0 c 0,3.20907 -2.601438,5.8145 -5.810511,5.8145 v 0 c -3.214071,0 -5.816508,-2.60543 -5.816508,-5.8145 m -29.0675493,0 c 0,-3.21208 2.6024376,-5.81451 5.8145092,-5.81451 v 0 c 3.2100731,0 5.8165081,2.60243 5.8165081,5.81451 v 0 c 0,3.20907 -2.606435,5.8145 -5.8165081,5.8145 v 0 c -3.2120716,0 -5.8145092,-2.60543 -5.8145092,-5.8145 M 341.93965,234.5057 c -3.21007,0 -5.81151,-2.60244 -5.81151,-5.81451 v 0 c 0,-3.21107 2.60144,-5.81451 5.81151,-5.81451 v 0 h 0.001 c 3.00919,0 5.48671,2.28863 5.78453,5.22087 v 0 c 0.021,0.19488 0.03,0.39276 0.03,0.59364 v 0 c 0,0.20088 -0.009,0.39976 -0.03,0.59465 v 0 c -0.29782,2.93224 -2.77534,5.21986 -5.78453,5.21986 v 0 z m -34.88106,-5.81451 c 0,-3.21107 2.60244,-5.81451 5.81251,-5.81451 v 0 c 3.20907,0 5.81551,2.60344 5.81551,5.81451 v 0 c 0,3.21207 -2.60644,5.81451 -5.81551,5.81451 v 0 c -3.21007,0 -5.81251,-2.60244 -5.81251,-5.81451 m -23.25904,5.81451 c -3.21007,0 -5.81151,-2.60244 -5.81151,-5.81451 v 0 c 0,-3.21107 2.60144,-5.81451 5.81151,-5.81451 v 0 h 10e-4 c 3.0092,0 5.48671,2.28863 5.78453,5.22087 v 0 c 0.021,0.19488 0.031,0.39276 0.031,0.59364 v 0 c 0,0.20088 -0.01,0.39976 -0.031,0.59465 v 0 c -0.29782,2.93224 -2.77533,5.21986 -5.78453,5.21986 v 0 z m -34.88005,-5.81451 c 0,-3.21107 2.60143,-5.81451 5.81151,-5.81451 v 0 c 3.20907,0 5.8155,2.60344 5.8155,5.81451 v 0 c 0,3.21207 -2.60643,5.81451 -5.8155,5.81451 v 0 c -3.21008,0 -5.81151,-2.60244 -5.81151,-5.81451 m -23.26004,5.81451 c -2.80831,0 -5.15191,-1.9928 -5.69358,-4.64221 v 0 c -0.077,-0.37777 -0.11793,-0.77054 -0.11793,-1.1723 v 0 c 0,-0.40076 0.041,-0.79352 0.11793,-1.17229 v 0 c 0.54167,-2.64941 2.88527,-4.64222 5.69358,-4.64222 v 0 h 0.001 c 3.21007,0 5.81551,2.60444 5.81551,5.81451 v 0 c 0,3.21107 -2.60544,5.81451 -5.81551,5.81451 v 0 z m -34.88006,-5.81451 c 0,-3.21107 2.60344,-5.81451 5.81151,-5.81451 v 0 c 3.20907,0 5.81551,2.60344 5.81551,5.81451 v 0 c 0,3.21207 -2.60644,5.81451 -5.81551,5.81451 v 0 c -3.20807,0 -5.81151,-2.60244 -5.81151,-5.81451 m -23.25904,5.81451 c -3.20907,0 -5.81251,-2.60244 -5.81251,-5.81451 v 0 c 0,-3.21107 2.60344,-5.81451 5.81251,-5.81451 v 0 h 10e-4 c 3.20908,0 5.81451,2.60444 5.81451,5.81451 v 0 c 0,3.21107 -2.60543,5.81451 -5.81451,5.81451 v 0 z m -34.88006,-5.81451 c 0,-3.21107 2.60244,-5.81451 5.81152,-5.81451 v 0 c 3.20807,0 5.8145,2.60344 5.8145,5.81451 v 0 c 0,3.21207 -2.60643,5.81451 -5.8145,5.81451 v 0 c -3.20908,0 -5.81152,-2.60244 -5.81152,-5.81451 m -23.25903,5.81451 c -3.20907,0 -5.81251,-2.60244 -5.81251,-5.81451 v 0 c 0,-3.21107 2.60344,-5.81451 5.81251,-5.81451 v 0 c 3.21007,0 5.81451,2.60444 5.81451,5.81451 v 0 c 0,3.21107 -2.60444,5.81351 -5.81351,5.81451 v 0 z m -34.880061,-5.81451 c 0,-3.21107 2.601438,-5.81451 5.811511,-5.81451 v 0 c 3.208074,0 5.814509,2.60344 5.814509,5.81451 v 0 c 0,3.21207 -2.606435,5.81451 -5.814509,5.81451 v 0 c -3.210073,0 -5.811511,-2.60244 -5.811511,-5.81451 m -23.260035,5.81451 c -3.209074,0 -5.811511,-2.60244 -5.811511,-5.81451 v 0 c 0,-3.21107 2.602437,-5.81451 5.811511,-5.81451 v 0 h 9.99e-4 c 3.209073,0 5.814509,2.60444 5.814509,5.81451 v 0 c 0,3.21107 -2.605436,5.81451 -5.814509,5.81451 v 0 z m -34.88006,-5.81451 c 0,-3.21107 2.601438,-5.81451 5.811511,-5.81451 v 0 c 3.209074,0 5.814509,2.60344 5.814509,5.81451 v 0 c 0,3.21207 -2.605435,5.81451 -5.814509,5.81451 v 0 c -3.210073,0 -5.811511,-2.60244 -5.811511,-5.81451 M 321.58987,214.15592 c 0,-3.20907 2.60343,-5.81351 5.81551,-5.81351 v 0 c 3.21007,0 5.81151,2.60444 5.81151,5.81351 v 0 c 0,3.21107 -2.60144,5.81451 -5.81151,5.81451 v 0 c -3.21208,0 -5.81551,-2.60344 -5.81551,-5.81451 m -29.06755,0 c 0,-3.20907 2.60244,-5.81351 5.81351,-5.81351 v 0 c 3.21107,0 5.81751,2.60444 5.81751,5.81351 v 0 c 0,3.21107 -2.60644,5.81451 -5.81751,5.81451 v 0 c -3.21107,0 -5.81351,-2.60344 -5.81351,-5.81451 m -29.07255,0 c 0,-3.20907 2.60244,-5.81351 5.81551,-5.81351 v 0 c 3.21007,0 5.81251,2.60444 5.81251,5.81351 v 0 c 0,3.21107 -2.60244,5.81451 -5.81251,5.81451 v 0 c -3.21307,0 -5.81551,-2.60344 -5.81551,-5.81451 m -29.06755,0 c 0,-3.20907 2.60244,-5.81351 5.81351,-5.81351 v 0 c 3.21107,0 5.81651,2.60444 5.81651,5.81351 v 0 c 0,3.21107 -2.60544,5.81451 -5.81651,5.81451 v 0 c -3.21107,0 -5.81351,-2.60344 -5.81351,-5.81451 m -29.07154,0 c 0,-3.20907 2.60143,-5.81351 5.8155,-5.81351 v 0 c 3.20908,0 5.81252,2.60444 5.81252,5.81351 v 0 c 0,3.21107 -2.60344,5.81451 -5.81252,5.81451 v 0 c -3.21407,0 -5.8155,-2.60344 -5.8155,-5.81451 m -29.06755,0 c 0,-3.20907 2.60243,-5.81351 5.81451,-5.81351 v 0 c 3.20907,0 5.8165,2.60444 5.8165,5.81351 v 0 c 0,3.21107 -2.60743,5.81451 -5.8165,5.81451 v 0 c -3.21208,0 -5.81451,-2.60344 -5.81451,-5.81451 m -29.07255,0 c 0,-3.20907 2.60244,-5.81351 5.81651,-5.81351 v 0 c 3.20907,0 5.81151,2.60444 5.81151,5.81351 v 0 c 0,3.21107 -2.60244,5.81451 -5.81151,5.81451 v 0 c -3.21407,0 -5.81651,-2.60344 -5.81651,-5.81451 m -29.06755,0 c 0,-3.20907 2.60244,-5.81351 5.81451,-5.81351 v 0 c 3.21007,0 5.81651,2.60444 5.81651,5.81351 v 0 c 0,3.21107 -2.60644,5.81451 -5.81651,5.81451 v 0 c -3.21207,0 -5.81451,-2.60344 -5.81451,-5.81451 m -29.071544,0 c 0,-3.20907 2.602437,-5.81351 5.816508,-5.81351 v 0 c 3.209073,0 5.811506,2.60444 5.811506,5.81351 v 0 c 0,3.21107 -2.602433,5.81451 -5.811506,5.81451 v 0 c -3.214071,0 -5.816508,-2.60344 -5.816508,-5.81451 m -29.067549,0 c 0,-3.20907 2.602437,-5.81351 5.814509,-5.81351 v 0 c 3.210073,0 5.816508,2.60444 5.816508,5.81351 v 0 c 0,3.21107 -2.606435,5.81451 -5.816508,5.81451 v 0 c -3.212072,0 -5.814509,-2.60344 -5.814509,-5.81451 m -29.072546,0 c 0,-3.20907 2.602437,-5.81351 5.816508,-5.81351 v 0 c 3.209073,0 5.810511,2.60444 5.810511,5.81351 v 0 c 0,3.21107 -2.601438,5.81451 -5.810511,5.81451 v 0 c -3.214071,0 -5.816508,-2.60344 -5.816508,-5.81451 m -29.0675493,0 c 0,-3.20907 2.6024376,-5.81351 5.8145092,-5.81351 v 0 c 3.2100731,0 5.8165081,2.60444 5.8165081,5.81351 v 0 c 0,3.21107 -2.606435,5.81451 -5.8165081,5.81451 v 0 c -3.2120716,0 -5.8145092,-2.60344 -5.8145092,-5.81451 M 341.93965,205.43416 c -0.20088,0 -0.39876,-0.01 -0.59364,-0.03 v 0 c -2.93224,-0.29782 -5.21787,-2.77133 -5.21787,-5.78352 v 0 -0.001 c 0,-3.20908 2.60144,-5.81351 5.81151,-5.81351 v 0 h 0.001 c 3.00919,0.001 5.48671,2.28962 5.78453,5.21986 v 0 c 0.021,0.19489 0.03,0.39377 0.03,0.59365 v 0 0.001 c 0,0.20087 -0.009,0.39976 -0.03,0.59464 v 0 c -0.27784,2.73835 -2.45553,4.91105 -5.19189,5.18888 v 0 c -0.19488,0.02 -0.39276,0.03 -0.59264,0.03 v 0 z m -29.66319,-0.03 c -2.93024,-0.29782 -5.21787,-2.77133 -5.21787,-5.78352 v 0 -0.001 c 0,-3.20908 2.60244,-5.81351 5.81251,-5.81351 v 0 c 3.20907,0 5.81551,2.60443 5.81551,5.81351 v 0 0.001 c 0,3.01219 -2.29162,5.4857 -5.22087,5.78352 v 0 c -0.19488,0.02 -0.39476,0.03 -0.59464,0.03 v 0 c -0.20088,0 -0.39876,-0.01 -0.59464,-0.03 m -28.47691,0.03 c -0.20087,0 -0.39876,-0.01 -0.59464,-0.03 v 0 c -2.93024,-0.29782 -5.21687,-2.77133 -5.21687,-5.78352 v 0 -0.001 c 0,-3.20908 2.60144,-5.81351 5.81151,-5.81351 v 0 h 10e-4 c 3.0092,0.001 5.48671,2.28962 5.78453,5.21986 v 0 c 0.021,0.19489 0.031,0.39377 0.031,0.59365 v 0 0.001 c 0,0.20087 -0.01,0.39976 -0.031,0.59464 v 0 c -0.27783,2.73835 -2.45552,4.91105 -5.19088,5.18888 v 0 c -0.19489,0.02 -0.39377,0.03 -0.59365,0.03 v 0 z m -29.66319,-0.03 c -2.93024,-0.29782 -5.21686,-2.77133 -5.21686,-5.78352 v 0 -0.001 c 0,-3.20908 2.60143,-5.81351 5.81151,-5.81351 v 0 c 3.20907,0 5.8155,2.60443 5.8155,5.81351 v 0 0.001 c 0,3.01219 -2.29162,5.4857 -5.22086,5.78352 v 0 c -0.19488,0.02 -0.39276,0.03 -0.59464,0.03 v 0 c -0.20088,0 -0.39876,-0.01 -0.59465,-0.03 m -28.4769,0.03 c -0.19988,0 -0.39876,-0.01 -0.59464,-0.03 v 0 c -2.53848,-0.25784 -4.59524,-2.15071 -5.09894,-4.61123 v 0 c -0.077,-0.37877 -0.11793,-0.77054 -0.11793,-1.17229 v 0 -0.001 c 0,-0.39976 0.041,-0.79253 0.11793,-1.1703 v 0 c 0.54167,-2.64841 2.88527,-4.64321 5.69358,-4.64321 v 0 h 0.001 c 3.20907,0.001 5.81551,2.60443 5.81551,5.81351 v 0 0.001 c 0,3.01219 -2.29163,5.4857 -5.22187,5.78352 v 0 c -0.19488,0.02 -0.39276,0.03 -0.59364,0.03 v 0 z m -29.66219,-0.03 c -2.93024,-0.29782 -5.21787,-2.77133 -5.21787,-5.78352 v 0 -0.001 c 0,-3.20908 2.60344,-5.81351 5.81151,-5.81351 v 0 c 3.20907,0 5.81551,2.60443 5.81551,5.81351 v 0 0.001 c 0,3.01219 -2.29062,5.4857 -5.22087,5.78352 v 0 c -0.19488,0.02 -0.39376,0.03 -0.59464,0.03 v 0 c -0.19988,0 -0.39876,-0.01 -0.59364,-0.03 m -28.47691,0.03 c -0.20088,0 -0.39876,-0.01 -0.59464,-0.03 v 0 c -2.92924,-0.29782 -5.21687,-2.77133 -5.21787,-5.78352 v 0 -0.001 c 0.001,-3.20908 2.60344,-5.81351 5.81251,-5.81351 v 0 h 10e-4 c 3.20908,0.001 5.81451,2.60443 5.81451,5.81351 v 0 0.001 c 0,3.01219 -2.29062,5.4857 -5.22086,5.78352 v 0 c -0.19489,0.02 -0.39277,0.03 -0.59365,0.03 v 0 z m -29.66319,-0.03 c -2.92924,-0.29782 -5.21687,-2.77133 -5.21687,-5.78352 v 0 -0.001 c 0,-3.20908 2.60244,-5.81351 5.81152,-5.81351 v 0 c 3.20807,0 5.8145,2.60443 5.8145,5.81351 v 0 0.001 c 0,3.01219 -2.29062,5.4857 -5.21986,5.78352 v 0 c -0.19588,0.02 -0.39376,0.03 -0.59464,0.03 v 0 c -0.20088,0 -0.39876,-0.01 -0.59465,-0.03 m -28.4759,0.03 c -0.20088,0 -0.39876,-0.01 -0.59464,-0.03 v 0 c -2.92925,-0.29782 -5.21787,-2.77133 -5.21787,-5.78352 v 0 -0.001 c 0,-3.20908 2.60344,-5.81351 5.81251,-5.81351 v 0 c 3.20907,0.001 5.81451,2.60543 5.81451,5.81351 v 0 0.001 c 0,3.01219 -2.29063,5.4857 -5.22087,5.78352 v 0 c -0.19488,0.02 -0.39276,0.03 -0.59264,0.03 v 0 z m -29.663193,-0.03 c -2.929241,-0.29782 -5.216868,-2.77133 -5.216868,-5.78352 v 0 -0.001 c 0,-3.20908 2.601438,-5.81351 5.811511,-5.81351 v 0 c 3.208074,0 5.814509,2.60443 5.814509,5.81351 v 0 0.001 c 0,3.01219 -2.290624,5.4857 -5.220865,5.78352 v 0 c -0.195883,0.02 -0.393764,0.03 -0.593644,0.03 v 0 c -0.200879,0 -0.39876,-0.01 -0.594643,-0.03 m -28.476903,0.03 c -0.20088,0 -0.398761,-0.01 -0.594643,-0.03 v 0 c -2.929242,-0.29782 -5.216868,-2.77133 -5.216868,-5.78352 v 0 -0.001 c 0,-3.20908 2.602437,-5.81351 5.811511,-5.81351 v 0 h 9.99e-4 c 3.209073,0.001 5.814509,2.60443 5.814509,5.81351 v 0 0.001 c 0,3.01219 -2.290625,5.4857 -5.220865,5.78352 v 0 c -0.195883,0.02 -0.393764,0.03 -0.593644,0.03 v 0 z m -29.662192,-0.03 c -2.931241,-0.29782 -5.217868,-2.77133 -5.217868,-5.78352 v 0 -0.001 c 0,-3.20908 2.601438,-5.81351 5.811511,-5.81351 v 0 c 3.209074,0 5.814509,2.60443 5.814509,5.81351 v 0 0.001 c 0,3.01219 -2.289625,5.4857 -5.219866,5.78352 v 0 c -0.195882,0.02 -0.394763,0.03 -0.594643,0.03 v 0 c -0.19988,0 -0.39876,-0.01 -0.593643,-0.03 m 300.010888,-20.3198 c 0,-3.21107 2.60343,-5.81351 5.81551,-5.81351 v 0 c 3.21007,0 5.81151,2.60244 5.81151,5.81351 v 0 c 0,3.21008 -2.60144,5.81551 -5.81151,5.81551 v 0 c -3.21208,0 -5.81551,-2.60543 -5.81551,-5.81551 m -29.06755,0 c 0,-3.21107 2.60244,-5.81351 5.81351,-5.81351 v 0 c 3.21107,0 5.81751,2.60244 5.81751,5.81351 v 0 c 0,3.21008 -2.60644,5.81551 -5.81751,5.81551 v 0 c -3.21107,0 -5.81351,-2.60543 -5.81351,-5.81551 m -29.07255,0 c 0,-3.21107 2.60244,-5.81351 5.81551,-5.81351 v 0 c 3.21007,0 5.81251,2.60244 5.81251,5.81351 v 0 c 0,3.21008 -2.60244,5.81551 -5.81251,5.81551 v 0 c -3.21307,0 -5.81551,-2.60543 -5.81551,-5.81551 m -29.06755,0 c 0,-3.21107 2.60244,-5.81351 5.81351,-5.81351 v 0 c 3.21107,0 5.81651,2.60244 5.81651,5.81351 v 0 c 0,3.21008 -2.60544,5.81551 -5.81651,5.81551 v 0 c -3.21107,0 -5.81351,-2.60543 -5.81351,-5.81551 m -29.07154,0 c 0,-3.21107 2.60143,-5.81351 5.8155,-5.81351 v 0 c 3.20908,0 5.81252,2.60244 5.81252,5.81351 v 0 c 0,3.21008 -2.60344,5.81551 -5.81252,5.81551 v 0 c -3.21407,0 -5.8155,-2.60543 -5.8155,-5.81551 m -29.06755,0 c 0,-3.21107 2.60243,-5.81351 5.81451,-5.81351 v 0 c 3.20907,0 5.8165,2.60244 5.8165,5.81351 v 0 c 0,3.21008 -2.60743,5.81551 -5.8165,5.81551 v 0 c -3.21208,0 -5.81451,-2.60543 -5.81451,-5.81551 m -29.07255,0 c 0,-3.21107 2.60244,-5.81351 5.81651,-5.81351 v 0 c 3.20907,0 5.81151,2.60244 5.81151,5.81351 v 0 c 0,3.21008 -2.60244,5.81551 -5.81151,5.81551 v 0 c -3.21407,0 -5.81651,-2.60543 -5.81651,-5.81551 m -29.06755,0 c 0,-3.21107 2.60244,-5.81351 5.81451,-5.81351 v 0 c 3.21007,0 5.81651,2.60244 5.81651,5.81351 v 0 c 0,3.21008 -2.60644,5.81551 -5.81651,5.81551 v 0 c -3.21207,0 -5.81451,-2.60543 -5.81451,-5.81551 m -29.071544,0 c 0,-3.21107 2.602437,-5.81351 5.816508,-5.81351 v 0 c 3.209073,0 5.811506,2.60244 5.811506,5.81351 v 0 c 0,3.21008 -2.602433,5.81551 -5.811506,5.81551 v 0 c -3.214071,0 -5.816508,-2.60543 -5.816508,-5.81551 m -29.067549,0 c 0,-3.21107 2.602437,-5.81351 5.814509,-5.81351 v 0 c 3.210073,0 5.816508,2.60244 5.816508,5.81351 v 0 c 0,3.21008 -2.606435,5.81551 -5.816508,5.81551 v 0 c -3.212072,0 -5.814509,-2.60543 -5.814509,-5.81551 m -29.072546,0 c 0,-3.21107 2.602437,-5.81351 5.816508,-5.81351 v 0 c 3.209073,0 5.810511,2.60244 5.810511,5.81351 v 0 c 0,3.21008 -2.601438,5.81551 -5.810511,5.81551 v 0 c -3.214071,0 -5.816508,-2.60543 -5.816508,-5.81551 m -29.0675493,0 c 0,-3.21107 2.6024376,-5.81351 5.8145092,-5.81351 v 0 c 3.2100731,0 5.8165081,2.60244 5.8165081,5.81351 v 0 c 0,3.21008 -2.606435,5.81551 -5.8165081,5.81551 v 0 c -3.2120716,0 -5.8145092,-2.60543 -5.8145092,-5.81551 M 341.93965,176.36361 c -3.21007,0 -5.81151,-2.60244 -5.81151,-5.81451 v 0 c 0,-3.21207 2.60144,-5.81551 5.81151,-5.81551 v 0 h 0.001 c 3.00919,0 5.48671,2.28963 5.78453,5.22087 v 0 c 0.021,0.19588 0.03,0.39476 0.03,0.59464 v 0 c 0,0.20088 -0.009,0.39976 -0.03,0.59464 v 0 c -0.29782,2.93124 -2.77534,5.21987 -5.78453,5.21987 v 0 z m -34.88106,-5.81451 c 0,-3.21207 2.60244,-5.81551 5.81251,-5.81551 v 0 c 3.20907,0 5.81551,2.60344 5.81551,5.81551 v 0 c 0,3.21207 -2.60644,5.81451 -5.81551,5.81451 v 0 c -3.21007,0 -5.81251,-2.60244 -5.81251,-5.81451 m -23.25904,5.81451 c -3.21007,0 -5.81151,-2.60244 -5.81151,-5.81451 v 0 c 0,-3.21207 2.60144,-5.81551 5.81151,-5.81551 v 0 h 10e-4 c 3.0092,0 5.48671,2.28963 5.78453,5.22087 v 0 c 0.021,0.19588 0.031,0.39476 0.031,0.59464 v 0 c 0,0.20088 -0.01,0.39976 -0.031,0.59464 v 0 c -0.29782,2.93124 -2.77533,5.21987 -5.78453,5.21987 v 0 z M 248.9195,170.5491 c 0,-3.21207 2.60143,-5.81551 5.81151,-5.81551 v 0 c 3.20907,0 5.8155,2.60344 5.8155,5.81551 v 0 c 0,3.21207 -2.60643,5.81451 -5.8155,5.81451 v 0 c -3.21008,0 -5.81151,-2.60244 -5.81151,-5.81451 m -23.26004,5.81451 c -2.80831,0 -5.15191,-1.9938 -5.69358,-4.64221 v 0 c -0.077,-0.37878 -0.11793,-0.77054 -0.11793,-1.1723 v 0 c 0,-0.40076 0.041,-0.79352 0.11793,-1.1723 v 0 c 0.54167,-2.64941 2.88527,-4.64321 5.69358,-4.64321 v 0 h 0.001 c 3.21007,0 5.81551,2.60444 5.81551,5.81551 v 0 c 0,3.21107 -2.60544,5.81451 -5.81551,5.81451 v 0 z M 190.7794,170.5491 c 0,-3.21207 2.60344,-5.81551 5.81151,-5.81551 v 0 c 3.20907,0 5.81551,2.60344 5.81551,5.81551 v 0 c 0,3.21207 -2.60644,5.81451 -5.81551,5.81451 v 0 c -3.20807,0 -5.81151,-2.60244 -5.81151,-5.81451 m -23.25904,5.81451 c -3.20907,0 -5.81251,-2.60244 -5.81251,-5.81451 v 0 c 0,-3.21207 2.60344,-5.81551 5.81251,-5.81551 v 0 h 10e-4 c 3.20908,0 5.81451,2.60444 5.81451,5.81551 v 0 c 0,3.21107 -2.60543,5.81451 -5.81451,5.81451 v 0 z M 132.6403,170.5491 c 0,-3.21207 2.60244,-5.81551 5.81152,-5.81551 v 0 c 3.20807,0 5.8145,2.60344 5.8145,5.81551 v 0 c 0,3.21207 -2.60643,5.81451 -5.8145,5.81451 v 0 c -3.20908,0 -5.81152,-2.60244 -5.81152,-5.81451 m -23.25903,5.81451 c -3.20907,0 -5.81251,-2.60244 -5.81251,-5.81451 v 0 c 0,-3.21207 2.60344,-5.81551 5.81251,-5.81551 v 0 c 3.21007,0.001 5.81451,2.60444 5.81451,5.81551 v 0 c 0,3.21107 -2.60444,5.81351 -5.81351,5.81451 v 0 z M 74.501209,170.5491 c 0,-3.21207 2.601438,-5.81551 5.811511,-5.81551 v 0 c 3.208074,0 5.814509,2.60344 5.814509,5.81551 v 0 c 0,3.21207 -2.606435,5.81451 -5.814509,5.81451 v 0 c -3.210073,0 -5.811511,-2.60244 -5.811511,-5.81451 m -23.260035,5.81451 c -3.209074,0 -5.811511,-2.60244 -5.811511,-5.81451 v 0 c 0,-3.21207 2.602437,-5.81551 5.811511,-5.81551 v 0 h 9.99e-4 c 3.209073,0 5.814509,2.60444 5.814509,5.81551 v 0 c 0,3.21107 -2.605436,5.81451 -5.814509,5.81451 v 0 z m -34.88006,-5.81451 c 0,-3.21207 2.601438,-5.81551 5.811511,-5.81551 v 0 c 3.209074,0 5.814509,2.60344 5.814509,5.81551 v 0 c 0,3.21207 -2.605435,5.81451 -5.814509,5.81451 v 0 c -3.210073,0 -5.811511,-2.60244 -5.811511,-5.81451 M 321.58987,156.01383 c 0,-3.21008 2.60343,-5.81451 5.81551,-5.81451 v 0 c 3.21007,0 5.81151,2.60443 5.81151,5.81451 v 0 c 0,3.21107 -2.60144,5.81351 -5.81151,5.81351 v 0 c -3.21208,0 -5.81551,-2.60244 -5.81551,-5.81351 m -29.06755,0 c 0,-3.21008 2.60244,-5.81451 5.81351,-5.81451 v 0 c 3.21107,0 5.81751,2.60443 5.81751,5.81451 v 0 c 0,3.21107 -2.60644,5.81351 -5.81751,5.81351 v 0 c -3.21107,0 -5.81351,-2.60244 -5.81351,-5.81351 m -29.07255,0 c 0,-3.21008 2.60244,-5.81451 5.81551,-5.81451 v 0 c 3.21007,0 5.81251,2.60443 5.81251,5.81451 v 0 c 0,3.21107 -2.60244,5.81351 -5.81251,5.81351 v 0 c -3.21307,0 -5.81551,-2.60244 -5.81551,-5.81351 m -29.06755,0 c 0,-3.21008 2.60244,-5.81451 5.81351,-5.81451 v 0 c 3.21107,0 5.81651,2.60443 5.81651,5.81451 v 0 c 0,3.21107 -2.60544,5.81351 -5.81651,5.81351 v 0 c -3.21107,0 -5.81351,-2.60244 -5.81351,-5.81351 m -29.07154,0 c 0,-3.21008 2.60143,-5.81451 5.8155,-5.81451 v 0 c 3.20908,0 5.81252,2.60443 5.81252,5.81451 v 0 c 0,3.21107 -2.60344,5.81351 -5.81252,5.81351 v 0 c -3.21407,0 -5.8155,-2.60244 -5.8155,-5.81351 m -29.06755,0 c 0,-3.21008 2.60243,-5.81451 5.81451,-5.81451 v 0 c 3.20907,0 5.8165,2.60443 5.8165,5.81451 v 0 c 0,3.21107 -2.60743,5.81351 -5.8165,5.81351 v 0 c -3.21208,0 -5.81451,-2.60244 -5.81451,-5.81351 m -29.07255,0 c 0,-3.21008 2.60244,-5.81451 5.81651,-5.81451 v 0 c 3.20907,0 5.81151,2.60443 5.81151,5.81451 v 0 c 0,3.21107 -2.60244,5.81351 -5.81151,5.81351 v 0 c -3.21407,0 -5.81651,-2.60244 -5.81651,-5.81351 m -29.06755,0 c 0,-3.21008 2.60244,-5.81451 5.81451,-5.81451 v 0 c 3.21007,0 5.81651,2.60443 5.81651,5.81451 v 0 c 0,3.21107 -2.60644,5.81351 -5.81651,5.81351 v 0 c -3.21207,0 -5.81451,-2.60244 -5.81451,-5.81351 m -29.071544,0 c 0,-3.21008 2.602437,-5.81451 5.816508,-5.81451 v 0 c 3.209073,0 5.811506,2.60443 5.811506,5.81451 v 0 c 0,3.21107 -2.602433,5.81351 -5.811506,5.81351 v 0 c -3.214071,0 -5.816508,-2.60244 -5.816508,-5.81351 m -29.067549,0 c 0,-3.21008 2.602437,-5.81451 5.814509,-5.81451 v 0 c 3.210073,0 5.816508,2.60443 5.816508,5.81451 v 0 c 0,3.21107 -2.606435,5.81351 -5.816508,5.81351 v 0 c -3.212072,0 -5.814509,-2.60244 -5.814509,-5.81351 m -29.072546,0 c 0,-3.21008 2.602437,-5.81451 5.816508,-5.81451 v 0 c 3.209073,0 5.810511,2.60443 5.810511,5.81451 v 0 c 0,3.21107 -2.601438,5.81351 -5.810511,5.81351 v 0 c -3.214071,0 -5.816508,-2.60244 -5.816508,-5.81351 m -29.0675493,0 c 0,-3.21008 2.6024376,-5.81451 5.8145092,-5.81451 v 0 c 3.2100731,0 5.8165081,2.60443 5.8165081,5.81451 v 0 c 0,3.21107 -2.606435,5.81351 -5.8165081,5.81351 v 0 c -3.2120716,0 -5.8145092,-2.60244 -5.8145092,-5.81351 M 341.93965,147.29206 c -3.21007,0 -5.81151,-2.60044 -5.81151,-5.81451 v 0 c 0,-3.21007 2.60144,-5.81351 5.81151,-5.81351 v 0 h 0.001 c 3.00919,0.001 5.48671,2.28863 5.78453,5.21887 v 0 c 0.021,0.19588 0.03,0.39476 0.03,0.59464 v 0 c 0,0.20188 -0.009,0.39976 -0.03,0.59564 v 0 c -0.29782,2.93324 -2.77534,5.21787 -5.78453,5.21887 v 0 z m -34.88106,-5.81451 c 0,-3.21007 2.60244,-5.81351 5.81251,-5.81351 v 0 c 3.20907,0 5.81551,2.60344 5.81551,5.81351 v 0 c 0,3.21407 -2.60644,5.81451 -5.81551,5.81451 v 0 c -3.21007,0 -5.81251,-2.60044 -5.81251,-5.81451 m -23.25904,5.81451 c -3.21007,0 -5.81151,-2.60044 -5.81151,-5.81451 v 0 c 0,-3.21007 2.60144,-5.81351 5.81151,-5.81351 v 0 h 10e-4 c 3.0092,0.001 5.48671,2.28863 5.78453,5.21887 v 0 c 0.021,0.19588 0.031,0.39476 0.031,0.59464 v 0 c 0,0.20188 -0.01,0.39976 -0.031,0.59564 v 0 c -0.29782,2.93324 -2.77533,5.21787 -5.78453,5.21887 v 0 z m -34.88005,-5.81451 c 0,-3.21007 2.60143,-5.81351 5.81151,-5.81351 v 0 c 3.20907,0 5.8155,2.60344 5.8155,5.81351 v 0 c 0,3.21407 -2.60643,5.81451 -5.8155,5.81451 v 0 c -3.21008,0 -5.81151,-2.60044 -5.81151,-5.81451 m -23.26004,5.81451 c -2.80831,0 -5.15191,-1.9918 -5.69358,-4.64221 v 0 c -0.077,-0.37877 -0.11793,-0.76954 -0.11793,-1.1723 v 0 c 0,-0.40076 0.041,-0.79352 0.11793,-1.1703 v 0 c 0.54167,-2.6494 2.88527,-4.64321 5.69358,-4.64321 v 0 h 0.001 c 3.21007,0.001 5.81551,2.60344 5.81551,5.81351 v 0 c 0,3.21407 -2.60544,5.81351 -5.81551,5.81451 v 0 z m -34.88006,-5.81451 c 0,-3.21007 2.60344,-5.81351 5.81151,-5.81351 v 0 c 3.20907,0 5.81551,2.60344 5.81551,5.81351 v 0 c 0,3.21407 -2.60644,5.81451 -5.81551,5.81451 v 0 c -3.20807,0 -5.81151,-2.60044 -5.81151,-5.81451 m -23.25904,5.81451 c -3.20907,0 -5.81251,-2.60044 -5.81251,-5.81451 v 0 c 0,-3.21007 2.60344,-5.81351 5.81251,-5.81351 v 0 h 10e-4 c 3.20908,0.001 5.81451,2.60344 5.81451,5.81351 v 0 c 0,3.21407 -2.60543,5.81351 -5.81451,5.81451 v 0 z m -34.88006,-5.81451 c 0,-3.21007 2.60244,-5.81351 5.81152,-5.81351 v 0 c 3.20807,0 5.8145,2.60344 5.8145,5.81351 v 0 c 0,3.21407 -2.60643,5.81451 -5.8145,5.81451 v 0 c -3.20908,0 -5.81152,-2.60044 -5.81152,-5.81451 m -23.25903,5.81451 c -3.20907,0 -5.81251,-2.60044 -5.81251,-5.81451 v 0 c 0,-3.21007 2.60344,-5.81351 5.81251,-5.81351 v 0 c 3.21007,0.001 5.81451,2.60444 5.81451,5.81351 v 0 c 0,3.21307 -2.60444,5.81351 -5.81351,5.81451 v 0 z m -34.880061,-5.81451 c 0,-3.21007 2.601438,-5.81351 5.811511,-5.81351 v 0 c 3.208074,0 5.814509,2.60344 5.814509,5.81351 v 0 c 0,3.21407 -2.606435,5.81451 -5.814509,5.81451 v 0 c -3.210073,0 -5.811511,-2.60044 -5.811511,-5.81451 m -23.260035,5.81451 c -3.209074,0 -5.811511,-2.60044 -5.811511,-5.81451 v 0 c 0,-3.21007 2.602437,-5.81351 5.811511,-5.81351 v 0 h 9.99e-4 c 3.209073,0.001 5.814509,2.60344 5.814509,5.81351 v 0 c 0,3.21407 -2.605436,5.81351 -5.814509,5.81451 v 0 z m -34.88006,-5.81451 c 0,-3.21007 2.601438,-5.81351 5.811511,-5.81351 v 0 c 3.209074,0 5.814509,2.60344 5.814509,5.81351 v 0 c 0,3.21407 -2.605435,5.81451 -5.814509,5.81451 v 0 c -3.210073,0 -5.811511,-2.60044 -5.811511,-5.81451 M 321.58987,126.94128 c 0,-3.21107 2.60343,-5.81351 5.81551,-5.81351 v 0 c 3.21007,0 5.81151,2.60244 5.81151,5.81351 v 0 c 0,3.21007 -2.60144,5.81451 -5.81151,5.81451 v 0 c -3.21208,0 -5.81551,-2.60444 -5.81551,-5.81451 m -29.06755,0 c 0,-3.21107 2.60244,-5.81351 5.81351,-5.81351 v 0 c 3.21107,0 5.81751,2.60244 5.81751,5.81351 v 0 c 0,3.21007 -2.60644,5.81451 -5.81751,5.81451 v 0 c -3.21107,0 -5.81351,-2.60444 -5.81351,-5.81451 m -29.07255,0 c 0,-3.21107 2.60244,-5.81351 5.81551,-5.81351 v 0 c 3.21007,0 5.81251,2.60244 5.81251,5.81351 v 0 c 0,3.21007 -2.60244,5.81451 -5.81251,5.81451 v 0 c -3.21307,0 -5.81551,-2.60444 -5.81551,-5.81451 m -29.06755,0 c 0,-3.21107 2.60244,-5.81351 5.81351,-5.81351 v 0 c 3.21107,0 5.81651,2.60244 5.81651,5.81351 v 0 c 0,3.21007 -2.60544,5.81451 -5.81651,5.81451 v 0 c -3.21107,0 -5.81351,-2.60444 -5.81351,-5.81451 m -29.07154,0 c 0,-3.21107 2.60143,-5.81351 5.8155,-5.81351 v 0 c 3.20908,0 5.81252,2.60244 5.81252,5.81351 v 0 c 0,3.21007 -2.60344,5.81451 -5.81252,5.81451 v 0 c -3.21407,0 -5.8155,-2.60444 -5.8155,-5.81451 m -29.06755,0 c 0,-3.21107 2.60243,-5.81351 5.81451,-5.81351 v 0 c 3.20907,0 5.8165,2.60244 5.8165,5.81351 v 0 c 0,3.21007 -2.60743,5.81451 -5.8165,5.81451 v 0 c -3.21208,0 -5.81451,-2.60444 -5.81451,-5.81451 m -29.07255,0 c 0,-3.21107 2.60244,-5.81351 5.81651,-5.81351 v 0 c 3.20907,0 5.81151,2.60244 5.81151,5.81351 v 0 c 0,3.21007 -2.60244,5.81451 -5.81151,5.81451 v 0 c -3.21407,0 -5.81651,-2.60444 -5.81651,-5.81451 m -29.06755,0 c 0,-3.21107 2.60244,-5.81351 5.81451,-5.81351 v 0 c 3.21007,0 5.81651,2.60244 5.81651,5.81351 v 0 c 0,3.21007 -2.60644,5.81451 -5.81651,5.81451 v 0 c -3.21207,0 -5.81451,-2.60444 -5.81451,-5.81451 m -29.071544,0 c 0,-3.21107 2.602437,-5.81351 5.816508,-5.81351 v 0 c 3.209073,0 5.811506,2.60244 5.811506,5.81351 v 0 c 0,3.21007 -2.602433,5.81451 -5.811506,5.81451 v 0 c -3.214071,0 -5.816508,-2.60444 -5.816508,-5.81451 m -29.067549,0 c 0,-3.21107 2.602437,-5.81351 5.814509,-5.81351 v 0 c 3.210073,0 5.816508,2.60244 5.816508,5.81351 v 0 c 0,3.21007 -2.606435,5.81451 -5.816508,5.81451 v 0 c -3.212072,0 -5.814509,-2.60444 -5.814509,-5.81451 m -29.072546,0 c 0,-3.21107 2.602437,-5.81351 5.816508,-5.81351 v 0 c 3.209073,0 5.810511,2.60244 5.810511,5.81351 v 0 c 0,3.21007 -2.601438,5.81451 -5.810511,5.81451 v 0 c -3.214071,0 -5.816508,-2.60444 -5.816508,-5.81451 m -29.0675493,0 c 0,-3.21107 2.6024376,-5.81351 5.8145092,-5.81351 v 0 c 3.2100731,0 5.8165081,2.60244 5.8165081,5.81351 v 0 c 0,3.21007 -2.606435,5.81451 -5.8165081,5.81451 v 0 c -3.2120716,0 -5.8145092,-2.60444 -5.8145092,-5.81451 M 341.93965,118.22051 c -3.21007,0 -5.81151,-2.60243 -5.81151,-5.8145 v 0 c 0,-3.21108 2.60144,-5.81551 5.81151,-5.81551 v 0 h 0.001 c 3.00919,10e-4 5.48671,2.28962 5.78453,5.22186 v 0 c 0.021,0.19489 0.03,0.39377 0.03,0.59365 v 0 c 0,0.20187 -0.009,0.39976 -0.03,0.59464 v 0 c -0.29782,2.93224 -2.77534,5.21986 -5.78453,5.21986 v 0 z m -34.88106,-5.8145 c 0,-3.21108 2.60244,-5.81551 5.81251,-5.81551 v 0 c 3.20907,0 5.81551,2.60443 5.81551,5.81551 v 0 c 0,3.21207 -2.60644,5.8145 -5.81551,5.8145 v 0 c -3.21007,0 -5.81251,-2.60243 -5.81251,-5.8145 m -23.25904,5.8145 c -3.21007,0 -5.81151,-2.60243 -5.81151,-5.8145 v 0 c 0,-3.21108 2.60144,-5.81551 5.81151,-5.81551 v 0 h 10e-4 c 3.0092,10e-4 5.48671,2.28962 5.78453,5.22186 v 0 c 0.021,0.19489 0.031,0.39377 0.031,0.59365 v 0 c 0,0.20187 -0.01,0.39976 -0.031,0.59464 v 0 c -0.29782,2.93224 -2.77533,5.21986 -5.78453,5.21986 v 0 z m -34.88005,-5.8145 c 0,-3.21108 2.60143,-5.81551 5.81151,-5.81551 v 0 c 3.20907,0 5.8155,2.60443 5.8155,5.81551 v 0 c 0,3.21207 -2.60643,5.8145 -5.8155,5.8145 v 0 c -3.21008,0 -5.81151,-2.60243 -5.81151,-5.8145 m -23.26004,5.8145 c -2.80831,0 -5.15191,-1.9928 -5.69358,-4.64221 v 0 c -0.077,-0.37877 -0.11793,-0.77054 -0.11793,-1.17229 v 0 c 0,-0.40076 0.041,-0.79253 0.11793,-1.1713 v 0 c 0.54167,-2.65041 2.88527,-4.64421 5.69358,-4.64421 v 0 h 0.001 c 3.21007,10e-4 5.81551,2.60443 5.81551,5.81551 v 0 c 0,3.21207 -2.60544,5.81351 -5.81551,5.8145 v 0 z m -34.88006,-5.8145 c 0,-3.21108 2.60344,-5.81551 5.81151,-5.81551 v 0 c 3.20907,0 5.81551,2.60443 5.81551,5.81551 v 0 c 0,3.21207 -2.60644,5.8145 -5.81551,5.8145 v 0 c -3.20807,0 -5.81151,-2.60243 -5.81151,-5.8145 m -23.25904,5.8145 c -3.20907,0 -5.81251,-2.60243 -5.81251,-5.8145 v 0 c 0,-3.21108 2.60344,-5.81551 5.81251,-5.81551 v 0 h 10e-4 c 3.20908,10e-4 5.81451,2.60443 5.81451,5.81551 v 0 c 0,3.21207 -2.60543,5.81351 -5.81451,5.8145 v 0 z m -34.88006,-5.8145 c 0,-3.21108 2.60244,-5.81551 5.81152,-5.81551 v 0 c 3.20807,0 5.8145,2.60443 5.8145,5.81551 v 0 c 0,3.21207 -2.60643,5.8145 -5.8145,5.8145 v 0 c -3.20908,0 -5.81152,-2.60243 -5.81152,-5.8145 m -23.25903,5.8145 c -3.20907,0 -5.81251,-2.60243 -5.81251,-5.8145 v 0 c 0,-3.21108 2.60344,-5.81551 5.81251,-5.81551 v 0 c 3.21007,10e-4 5.81451,2.60443 5.81451,5.81551 v 0 c 0,3.21207 -2.60444,5.81351 -5.81351,5.8145 v 0 z m -34.880061,-5.8145 c 0,-3.21108 2.601438,-5.81551 5.811511,-5.81551 v 0 c 3.208074,0 5.814509,2.60443 5.814509,5.81551 v 0 c 0,3.21207 -2.606435,5.8145 -5.814509,5.8145 v 0 c -3.210073,0 -5.811511,-2.60243 -5.811511,-5.8145 m -23.260035,5.8145 c -3.209074,0 -5.811511,-2.60243 -5.811511,-5.8145 v 0 c 0,-3.21108 2.602437,-5.81551 5.811511,-5.81551 v 0 h 9.99e-4 c 3.209073,10e-4 5.814509,2.60443 5.814509,5.81551 v 0 c 0,3.21207 -2.605436,5.81351 -5.814509,5.8145 v 0 z m -34.88006,-5.8145 c 0,-3.21108 2.601438,-5.81551 5.811511,-5.81551 v 0 c 3.209074,0 5.814509,2.60443 5.814509,5.81551 v 0 c 0,3.21207 -2.605435,5.8145 -5.814509,5.8145 v 0 c -3.210073,0 -5.811511,-2.60243 -5.811511,-5.8145 M 321.58987,97.870732 c 0,-3.210073 2.60343,-5.814509 5.81551,-5.814509 v 0 c 3.21007,0 5.81151,2.604436 5.81151,5.814509 v 0 c 0,3.211068 -2.60144,5.814508 -5.81151,5.814508 v 0 c -3.21208,0 -5.81551,-2.60344 -5.81551,-5.814508 m -29.06755,0 c 0,-3.210073 2.60244,-5.814509 5.81351,-5.814509 v 0 c 3.21107,0 5.81751,2.604436 5.81751,5.814509 v 0 c 0,3.211068 -2.60644,5.814508 -5.81751,5.814508 v 0 c -3.21107,0 -5.81351,-2.60344 -5.81351,-5.814508 m -29.07255,0 c 0,-3.210073 2.60244,-5.814509 5.81551,-5.814509 v 0 c 3.21007,0 5.81251,2.604436 5.81251,5.814509 v 0 c 0,3.211068 -2.60244,5.814508 -5.81251,5.814508 v 0 c -3.21307,0 -5.81551,-2.60344 -5.81551,-5.814508 m -29.06755,0 c 0,-3.210073 2.60244,-5.814509 5.81351,-5.814509 v 0 c 3.21107,0 5.81651,2.604436 5.81651,5.814509 v 0 c 0,3.211068 -2.60544,5.814508 -5.81651,5.814508 v 0 c -3.21107,0 -5.81351,-2.60344 -5.81351,-5.814508 m -29.07154,0 c 0,-3.210073 2.60143,-5.814509 5.8155,-5.814509 v 0 c 3.20908,0 5.81252,2.604436 5.81252,5.814509 v 0 c 0,3.211068 -2.60344,5.814508 -5.81252,5.814508 v 0 c -3.21407,0 -5.8155,-2.60344 -5.8155,-5.814508 m -29.06755,0 c 0,-3.210073 2.60243,-5.814509 5.81451,-5.814509 v 0 c 3.20907,0 5.8165,2.604436 5.8165,5.814509 v 0 c 0,3.211068 -2.60743,5.814508 -5.8165,5.814508 v 0 c -3.21208,0 -5.81451,-2.60344 -5.81451,-5.814508 m -29.07255,0 c 0,-3.210073 2.60244,-5.814509 5.81651,-5.814509 v 0 c 3.20907,0 5.81151,2.604436 5.81151,5.814509 v 0 c 0,3.211068 -2.60244,5.814508 -5.81151,5.814508 v 0 c -3.21407,0 -5.81651,-2.60344 -5.81651,-5.814508 m -29.06755,0 c 0,-3.210073 2.60244,-5.814509 5.81451,-5.814509 v 0 c 3.21007,0 5.81651,2.604436 5.81651,5.814509 v 0 c 0,3.211068 -2.60644,5.814508 -5.81651,5.814508 v 0 c -3.21207,0 -5.81451,-2.60344 -5.81451,-5.814508 m -29.071544,0 c 0,-3.210073 2.602437,-5.814509 5.816508,-5.814509 v 0 c 3.209073,0 5.811506,2.604436 5.811506,5.814509 v 0 c 0,3.211068 -2.602433,5.814508 -5.811506,5.814508 v 0 c -3.214071,0 -5.816508,-2.60344 -5.816508,-5.814508 m -29.067549,0 c 0,-3.210073 2.602437,-5.814509 5.814509,-5.814509 v 0 c 3.210073,0 5.816508,2.604436 5.816508,5.814509 v 0 c 0,3.211068 -2.606435,5.814508 -5.816508,5.814508 v 0 c -3.212072,0 -5.814509,-2.60344 -5.814509,-5.814508 m -29.072546,0 c 0,-3.210073 2.602437,-5.814509 5.816508,-5.814509 v 0 c 3.209073,0 5.810511,2.604436 5.810511,5.814509 v 0 c 0,3.211068 -2.601438,5.814508 -5.810511,5.814508 v 0 c -3.214071,0 -5.816508,-2.60344 -5.816508,-5.814508 m -29.0675493,0 c 0,-3.210073 2.6024376,-5.814509 5.8145092,-5.814509 v 0 c 3.2100731,0 5.8165081,2.604436 5.8165081,5.814509 v 0 c 0,3.211068 -2.606435,5.814508 -5.8165081,5.814508 v 0 c -3.2120716,0 -5.8145092,-2.60344 -5.8145092,-5.814508 M 341.93965,89.148968 c -3.21007,0 -5.81151,-2.600438 -5.81151,-5.813509 v 0 c 0,-3.211073 2.60144,-5.81451 5.81151,-5.81451 v 0 h 0.001 c 3.00919,0.002 5.48671,2.288626 5.78453,5.219867 v 0 c 0.021,0.194883 0.03,0.393763 0.03,0.594643 v 0 c 0,0.200879 -0.009,0.39876 -0.03,0.594643 v 0 c -0.29782,2.933239 -2.77534,5.217867 -5.78453,5.218866 v 0 z m -34.88106,-5.813509 c 0,-3.211073 2.60244,-5.81451 5.81251,-5.81451 v 0 c 3.20907,0 5.81551,2.603437 5.81551,5.81451 v 0 c 0,3.213071 -2.60644,5.813509 -5.81551,5.813509 v 0 c -3.21007,0 -5.81251,-2.600438 -5.81251,-5.813509 m -23.25904,5.813509 c -3.21007,0 -5.81151,-2.600438 -5.81151,-5.813509 v 0 c 0,-3.211073 2.60144,-5.81451 5.81151,-5.81451 v 0 h 10e-4 c 3.0092,0.002 5.48671,2.288626 5.78453,5.219867 v 0 c 0.021,0.194883 0.031,0.393763 0.031,0.594643 v 0 c 0,0.200879 -0.01,0.39876 -0.031,0.594643 v 0 c -0.29782,2.933239 -2.77533,5.217867 -5.78453,5.218866 v 0 z M 248.9195,83.335459 c 0,-3.211073 2.60143,-5.81451 5.81151,-5.81451 v 0 c 3.20907,0 5.8155,2.603437 5.8155,5.81451 v 0 c 0,3.213071 -2.60643,5.813509 -5.8155,5.813509 v 0 c -3.21008,0 -5.81151,-2.600438 -5.81151,-5.813509 m -23.26004,5.813509 c -2.80831,0 -5.15191,-1.990804 -5.69358,-4.642213 v 0 c -0.077,-0.378772 -0.11793,-0.769538 -0.11793,-1.171296 v 0 c 0,-0.401759 0.041,-0.793524 0.11793,-1.171297 v 0 c 0.54167,-2.64941 2.88527,-4.643213 5.69358,-4.643213 v 0 h 0.001 c 3.21007,0.002 5.81551,2.603437 5.81551,5.81451 v 0 c 0,3.213071 -2.60544,5.81251 -5.81551,5.813509 v 0 z M 190.7794,83.335459 c 0,-3.211073 2.60344,-5.81451 5.81151,-5.81451 v 0 c 3.20907,0 5.81551,2.603437 5.81551,5.81451 v 0 c 0,3.213071 -2.60644,5.813509 -5.81551,5.813509 v 0 c -3.20807,0 -5.81151,-2.600438 -5.81151,-5.813509 m -23.25904,5.813509 c -3.20907,0 -5.81251,-2.600438 -5.81251,-5.813509 v 0 c 0,-3.211073 2.60344,-5.81451 5.81251,-5.81451 v 0 h 10e-4 c 3.20908,0.002 5.81451,2.603437 5.81451,5.81451 v 0 c 0,3.213071 -2.60543,5.81251 -5.81451,5.813509 v 0 z M 132.6403,83.335459 c 0,-3.211073 2.60244,-5.81451 5.81152,-5.81451 v 0 c 3.20807,0 5.8145,2.603437 5.8145,5.81451 v 0 c 0,3.213071 -2.60643,5.813509 -5.8145,5.813509 v 0 c -3.20908,0 -5.81152,-2.600438 -5.81152,-5.813509 m -23.25903,5.813509 c -3.20907,0 -5.81251,-2.600438 -5.81251,-5.813509 v 0 c 0,-3.211073 2.60344,-5.81451 5.81251,-5.81451 v 0 c 3.21007,0.002 5.81451,2.604437 5.81451,5.81451 v 0 c 0,3.212071 -2.60444,5.81251 -5.81351,5.813509 v 0 z M 74.501209,83.335459 c 0,-3.211073 2.601438,-5.81451 5.811511,-5.81451 v 0 c 3.208074,0 5.814509,2.603437 5.814509,5.81451 v 0 c 0,3.213071 -2.606435,5.813509 -5.814509,5.813509 v 0 c -3.210073,0 -5.811511,-2.600438 -5.811511,-5.813509 m -23.260035,5.813509 c -3.209074,0 -5.811511,-2.600438 -5.811511,-5.813509 v 0 c 0,-3.211073 2.602437,-5.81451 5.811511,-5.81451 v 0 h 9.99e-4 c 3.209073,0.002 5.814509,2.603437 5.814509,5.81451 v 0 c 0,3.213071 -2.605436,5.81251 -5.814509,5.813509 v 0 z m -34.88006,-5.813509 c 0,-3.211073 2.601438,-5.81451 5.811511,-5.81451 v 0 c 3.209074,0 5.814509,2.603437 5.814509,5.81451 v 0 c 0,3.213071 -2.605435,5.813509 -5.814509,5.813509 v 0 c -3.210073,0 -5.811511,-2.600438 -5.811511,-5.813509 M 321.58987,68.799186 c 0,-3.211073 2.60343,-5.81451 5.81551,-5.81451 v 0 c 3.21007,0 5.81151,2.603437 5.81151,5.81451 v 0 c 0,3.210072 -2.60144,5.813509 -5.81151,5.813509 v 0 c -3.21208,0 -5.81551,-2.603437 -5.81551,-5.813509 m -29.06755,0 c 0,-3.211073 2.60244,-5.81451 5.81351,-5.81451 v 0 c 3.21107,0 5.81751,2.603437 5.81751,5.81451 v 0 c 0,3.210072 -2.60644,5.813509 -5.81751,5.813509 v 0 c -3.21107,0 -5.81351,-2.603437 -5.81351,-5.813509 m -29.07255,0 c 0,-3.211073 2.60244,-5.81451 5.81551,-5.81451 v 0 c 3.21007,0 5.81251,2.603437 5.81251,5.81451 v 0 c 0,3.210072 -2.60244,5.813509 -5.81251,5.813509 v 0 c -3.21307,0 -5.81551,-2.603437 -5.81551,-5.813509 m -29.06755,0 c 0,-3.211073 2.60244,-5.81451 5.81351,-5.81451 v 0 c 3.21107,0 5.81651,2.603437 5.81651,5.81451 v 0 c 0,3.210072 -2.60544,5.813509 -5.81651,5.813509 v 0 c -3.21107,0 -5.81351,-2.603437 -5.81351,-5.813509 m -29.07154,0 c 0,-3.211073 2.60143,-5.81451 5.8155,-5.81451 v 0 c 3.20908,0 5.81252,2.603437 5.81252,5.81451 v 0 c 0,3.210072 -2.60344,5.813509 -5.81252,5.813509 v 0 c -3.21407,0 -5.8155,-2.603437 -5.8155,-5.813509 m -29.06755,0 c 0,-3.211073 2.60243,-5.81451 5.81451,-5.81451 v 0 c 3.20907,0 5.8165,2.603437 5.8165,5.81451 v 0 c 0,3.210072 -2.60743,5.813509 -5.8165,5.813509 v 0 c -3.21208,0 -5.81451,-2.603437 -5.81451,-5.813509 m -29.07255,0 c 0,-3.211073 2.60244,-5.81451 5.81651,-5.81451 v 0 c 3.20907,0 5.81151,2.603437 5.81151,5.81451 v 0 c 0,3.210072 -2.60244,5.813509 -5.81151,5.813509 v 0 c -3.21407,0 -5.81651,-2.603437 -5.81651,-5.813509 m -29.06755,0 c 0,-3.211073 2.60244,-5.81451 5.81451,-5.81451 v 0 c 3.21007,0 5.81651,2.603437 5.81651,5.81451 v 0 c 0,3.210072 -2.60644,5.813509 -5.81651,5.813509 v 0 c -3.21207,0 -5.81451,-2.603437 -5.81451,-5.813509 m -29.071544,0 c 0,-3.211073 2.602437,-5.81451 5.816508,-5.81451 v 0 c 3.209073,0 5.811506,2.603437 5.811506,5.81451 v 0 c 0,3.210072 -2.602433,5.813509 -5.811506,5.813509 v 0 c -3.214071,0 -5.816508,-2.603437 -5.816508,-5.813509 m -29.067549,0 c 0,-3.211073 2.602437,-5.81451 5.814509,-5.81451 v 0 c 3.210073,0 5.816508,2.603437 5.816508,5.81451 v 0 c 0,3.210072 -2.606435,5.813509 -5.816508,5.813509 v 0 c -3.212072,0 -5.814509,-2.603437 -5.814509,-5.813509 m -29.072546,0 c 0,-3.211073 2.602437,-5.81451 5.816508,-5.81451 v 0 c 3.209073,0 5.810511,2.603437 5.810511,5.81451 v 0 c 0,3.210072 -2.601438,5.813509 -5.810511,5.813509 v 0 c -3.214071,0 -5.816508,-2.603437 -5.816508,-5.813509 m -29.0675493,0 c 0,-3.211073 2.6024376,-5.81451 5.8145092,-5.81451 v 0 c 3.2100731,0 5.8165081,2.603437 5.8165081,5.81451 v 0 c 0,3.210072 -2.606435,5.813509 -5.8165081,5.813509 v 0 c -3.2120716,0 -5.8145092,-2.603437 -5.8145092,-5.813509 M 341.93965,60.077422 c -3.21007,0 -5.81151,-2.601438 -5.81151,-5.81351 v 0 c 0,-3.212072 2.60144,-5.816508 5.81151,-5.816508 v 0 h 0.001 c 3.00919,9.99e-4 5.48671,2.289625 5.78453,5.221865 v 0 c 0.021,0.194883 0.03,0.393764 0.03,0.594643 v 0 c 0,0.200879 -0.009,0.398761 -0.03,0.594643 v 0 c -0.29782,2.93224 -2.77534,5.218867 -5.78453,5.218867 v 0 z m -34.88106,-5.81351 c 0,-3.212072 2.60244,-5.816508 5.81251,-5.816508 v 0 c 3.20907,0 5.81551,2.604436 5.81551,5.816508 v 0 c 0,3.212072 -2.60644,5.81351 -5.81551,5.81351 v 0 c -3.21007,0 -5.81251,-2.601438 -5.81251,-5.81351 m -23.25904,5.81351 c -3.21007,0 -5.81151,-2.601438 -5.81151,-5.81351 v 0 c 0,-3.212072 2.60144,-5.816508 5.81151,-5.816508 v 0 h 10e-4 c 3.0092,9.99e-4 5.48671,2.289625 5.78453,5.221865 v 0 c 0.021,0.194883 0.031,0.393764 0.031,0.594643 v 0 c 0,0.200879 -0.01,0.398761 -0.031,0.594643 v 0 c -0.29782,2.93224 -2.77533,5.218867 -5.78453,5.218867 v 0 z m -34.88005,-5.81351 c 0,-3.212072 2.60143,-5.816508 5.81151,-5.816508 v 0 c 3.20907,0 5.8155,2.604436 5.8155,5.816508 v 0 c 0,3.212072 -2.60643,5.81351 -5.8155,5.81351 v 0 c -3.21008,0 -5.81151,-2.601438 -5.81151,-5.81351 m -23.26004,5.81351 c -2.80831,0 -5.15191,-1.991804 -5.69358,-4.642213 v 0 c -0.077,-0.378773 -0.11793,-0.770538 -0.11793,-1.171297 v 0 c 0,-0.401759 0.041,-0.793524 0.11793,-1.172296 v 0 c 0.54167,-2.650409 2.88527,-4.644212 5.69358,-4.644212 v 0 h 0.001 c 3.21007,9.99e-4 5.81551,2.604436 5.81551,5.816508 v 0 c 0,3.212072 -2.60544,5.81251 -5.81551,5.81351 v 0 z m -34.88006,-5.81351 c 0,-3.212072 2.60344,-5.816508 5.81151,-5.816508 v 0 c 3.20907,0 5.81551,2.604436 5.81551,5.816508 v 0 c 0,3.212072 -2.60644,5.81351 -5.81551,5.81351 v 0 c -3.20807,0 -5.81151,-2.601438 -5.81151,-5.81351 m -23.25904,5.81351 c -3.20907,0 -5.81251,-2.601438 -5.81251,-5.81351 v 0 c 0,-3.212072 2.60344,-5.816508 5.81251,-5.816508 v 0 h 10e-4 c 3.20908,9.99e-4 5.81451,2.604436 5.81451,5.816508 v 0 c 0,3.212072 -2.60543,5.81251 -5.81451,5.81351 v 0 z m -34.88006,-5.81351 c 0,-3.212072 2.60244,-5.816508 5.81152,-5.816508 v 0 c 3.20807,0 5.8145,2.604436 5.8145,5.816508 v 0 c 0,3.212072 -2.60643,5.81351 -5.8145,5.81351 v 0 c -3.20908,0 -5.81152,-2.601438 -5.81152,-5.81351 m -23.25903,5.81351 c -3.20907,0 -5.81251,-2.601438 -5.81251,-5.81351 v 0 c 0,-3.212072 2.60344,-5.816508 5.81251,-5.816508 v 0 c 3.21007,9.99e-4 5.81451,2.604436 5.81451,5.816508 v 0 c 0,3.212072 -2.60444,5.81251 -5.81351,5.81351 v 0 z m -34.880061,-5.81351 c 0,-3.212072 2.601438,-5.816508 5.811511,-5.816508 v 0 c 3.208074,0 5.814509,2.604436 5.814509,5.816508 v 0 c 0,3.212072 -2.606435,5.81351 -5.814509,5.81351 v 0 c -3.210073,0 -5.811511,-2.601438 -5.811511,-5.81351 m -23.260035,5.81351 c -3.209074,0 -5.811511,-2.601438 -5.811511,-5.81351 v 0 c 0,-3.212072 2.602437,-5.816508 5.811511,-5.816508 v 0 h 9.99e-4 c 3.209073,9.99e-4 5.814509,2.604436 5.814509,5.816508 v 0 c 0,3.212072 -2.605436,5.81251 -5.814509,5.81351 v 0 z m -34.88006,-5.81351 c 0,-3.212072 2.601438,-5.816508 5.811511,-5.816508 v 0 c 3.209074,0 5.814509,2.604436 5.814509,5.816508 v 0 c 0,3.212072 -2.605435,5.81351 -5.814509,5.81351 v 0 c -3.210073,0 -5.811511,-2.601438 -5.811511,-5.81351 M 321.58987,39.728638 c 0,-3.210072 2.60343,-5.815508 5.81551,-5.815508 v 0 c 3.21007,0 5.81151,2.605436 5.81151,5.815508 v 0 c 0,3.211073 -2.60144,5.81351 -5.81151,5.81351 v 0 c -3.21208,0 -5.81551,-2.602437 -5.81551,-5.81351 m -29.06755,0 c 0,-3.210072 2.60244,-5.815508 5.81351,-5.815508 v 0 c 3.21107,0 5.81751,2.605436 5.81751,5.815508 v 0 c 0,3.211073 -2.60644,5.81351 -5.81751,5.81351 v 0 c -3.21107,0 -5.81351,-2.602437 -5.81351,-5.81351 m -29.07255,0 c 0,-3.210072 2.60244,-5.815508 5.81551,-5.815508 v 0 c 3.21007,0 5.81251,2.605436 5.81251,5.815508 v 0 c 0,3.211073 -2.60244,5.81351 -5.81251,5.81351 v 0 c -3.21307,0 -5.81551,-2.602437 -5.81551,-5.81351 m -29.06755,0 c 0,-3.210072 2.60244,-5.815508 5.81351,-5.815508 v 0 c 3.21107,0 5.81651,2.605436 5.81651,5.815508 v 0 c 0,3.211073 -2.60544,5.81351 -5.81651,5.81351 v 0 c -3.21107,0 -5.81351,-2.602437 -5.81351,-5.81351 m -29.07154,0 c 0,-3.210072 2.60143,-5.815508 5.8155,-5.815508 v 0 c 3.20908,0 5.81252,2.605436 5.81252,5.815508 v 0 c 0,3.211073 -2.60344,5.81351 -5.81252,5.81351 v 0 c -3.21407,0 -5.8155,-2.602437 -5.8155,-5.81351 m -29.06755,0 c 0,-3.210072 2.60243,-5.815508 5.81451,-5.815508 v 0 c 3.20907,0 5.8165,2.605436 5.8165,5.815508 v 0 c 0,3.211073 -2.60743,5.81351 -5.8165,5.81351 v 0 c -3.21208,0 -5.81451,-2.602437 -5.81451,-5.81351 m -29.07255,0 c 0,-3.210072 2.60244,-5.815508 5.81651,-5.815508 v 0 c 3.20907,0 5.81151,2.605436 5.81151,5.815508 v 0 c 0,3.211073 -2.60244,5.81351 -5.81151,5.81351 v 0 c -3.21407,0 -5.81651,-2.602437 -5.81651,-5.81351 m -29.06755,0 c 0,-3.210072 2.60244,-5.815508 5.81451,-5.815508 v 0 c 3.21007,0 5.81651,2.605436 5.81651,5.815508 v 0 c 0,3.211073 -2.60644,5.81351 -5.81651,5.81351 v 0 c -3.21207,0 -5.81451,-2.602437 -5.81451,-5.81351 m -29.071544,0 c 0,-3.210072 2.602437,-5.815508 5.816508,-5.815508 v 0 c 3.209073,0 5.811506,2.605436 5.811506,5.815508 v 0 c 0,3.211073 -2.602433,5.81351 -5.811506,5.81351 v 0 c -3.214071,0 -5.816508,-2.602437 -5.816508,-5.81351 m -29.067549,0 c 0,-3.210072 2.602437,-5.815508 5.814509,-5.815508 v 0 c 3.210073,0 5.816508,2.605436 5.816508,5.815508 v 0 c 0,3.211073 -2.606435,5.81351 -5.816508,5.81351 v 0 c -3.212072,0 -5.814509,-2.602437 -5.814509,-5.81351 m -29.072546,0 c 0,-3.210072 2.602437,-5.815508 5.816508,-5.815508 v 0 c 3.209073,0 5.810511,2.605436 5.810511,5.815508 v 0 c 0,3.211073 -2.601438,5.81351 -5.810511,5.81351 v 0 c -3.214071,0 -5.816508,-2.602437 -5.816508,-5.81351 m -29.0675493,0 c 0,-3.210072 2.6024376,-5.815508 5.8145092,-5.815508 v 0 c 3.2100731,0 5.8165081,2.605436 5.8165081,5.815508 v 0 c 0,3.211073 -2.606435,5.81351 -5.8165081,5.81351 v 0 c -3.2120716,0 -5.8145092,-2.602437 -5.8145092,-5.81351 M 341.93965,31.005875 c -3.21007,0 -5.81151,-2.600439 -5.81151,-5.81351 v 0 c 0,-3.210072 2.60144,-5.813509 5.81151,-5.813509 v 0 h 0.001 c 3.00919,9.99e-4 5.48671,2.288626 5.78453,5.218866 v 0 c 0.021,0.194883 0.03,0.393764 0.03,0.594643 v 0 c 0,0.20088 -0.009,0.398761 -0.03,0.595643 v 0 c -0.29782,2.932239 -2.77534,5.216868 -5.78453,5.217867 v 0 z m -34.88106,-5.81351 c 0,-3.210072 2.60244,-5.813509 5.81251,-5.813509 v 0 c 3.20907,0 5.81551,2.603437 5.81551,5.813509 v 0 c 0,3.213071 -2.60644,5.81351 -5.81551,5.81351 v 0 c -3.21007,0 -5.81251,-2.600439 -5.81251,-5.81351 m -23.25904,5.81351 c -3.21007,0 -5.81151,-2.600439 -5.81151,-5.81351 v 0 c 0,-3.210072 2.60144,-5.813509 5.81151,-5.813509 v 0 h 10e-4 c 3.0092,9.99e-4 5.48671,2.288626 5.78453,5.218866 v 0 c 0.021,0.194883 0.031,0.393764 0.031,0.594643 v 0 c 0,0.20088 -0.01,0.398761 -0.031,0.595643 v 0 c -0.29782,2.932239 -2.77533,5.216868 -5.78453,5.217867 v 0 z m -34.88005,-5.81351 c 0,-3.210072 2.60143,-5.813509 5.81151,-5.813509 v 0 c 3.20907,0 5.8155,2.603437 5.8155,5.813509 v 0 c 0,3.213071 -2.60643,5.81351 -5.8155,5.81351 v 0 c -3.21008,0 -5.81151,-2.600439 -5.81151,-5.81351 m -23.26004,5.81351 c -2.80831,0 -5.15191,-1.990805 -5.69358,-4.642213 v 0 c -0.077,-0.377773 -0.11793,-0.769538 -0.11793,-1.171297 v 0 c 0,-0.401758 0.041,-0.793523 0.11793,-1.171296 v 0 c 0.54167,-2.64941 2.88527,-4.642213 5.69358,-4.642213 v 0 h 0.001 c 3.21007,9.99e-4 5.81551,2.603437 5.81551,5.813509 v 0 c 0,3.213071 -2.60544,5.812511 -5.81551,5.81351 v 0 z m -34.88006,-5.81351 c 0,-3.210072 2.60344,-5.813509 5.81151,-5.813509 v 0 c 3.20907,0 5.81551,2.603437 5.81551,5.813509 v 0 c 0,3.213071 -2.60644,5.81351 -5.81551,5.81351 v 0 c -3.20807,0 -5.81151,-2.600439 -5.81151,-5.81351 m -23.25904,5.81351 c -3.20907,0 -5.81251,-2.600439 -5.81251,-5.81351 v 0 c 0,-3.210072 2.60344,-5.813509 5.81251,-5.813509 v 0 h 10e-4 c 3.20908,9.99e-4 5.81451,2.603437 5.81451,5.813509 v 0 c 0,3.213071 -2.60543,5.812511 -5.81451,5.81351 v 0 z m -34.88006,-5.81351 c 0,-3.210072 2.60244,-5.813509 5.81152,-5.813509 v 0 c 3.20807,0 5.8145,2.603437 5.8145,5.813509 v 0 c 0,3.213071 -2.60643,5.81351 -5.8145,5.81351 v 0 c -3.20908,0 -5.81152,-2.600439 -5.81152,-5.81351 m -23.25903,5.81351 c -3.20907,0 -5.81251,-2.600439 -5.81251,-5.81351 v 0 c 0,-3.210072 2.60344,-5.813509 5.81251,-5.813509 v 0 c 3.21007,9.99e-4 5.81451,2.604436 5.81451,5.813509 v 0 c 0,3.213071 -2.60444,5.812511 -5.81351,5.81351 v 0 z m -34.880061,-5.81351 c 0,-3.210072 2.601438,-5.813509 5.811511,-5.813509 v 0 c 3.208074,0 5.814509,2.603437 5.814509,5.813509 v 0 c 0,3.213071 -2.606435,5.81351 -5.814509,5.81351 v 0 c -3.210073,0 -5.811511,-2.600439 -5.811511,-5.81351 m -23.260035,5.81351 c -3.209074,0 -5.811511,-2.600439 -5.811511,-5.81351 v 0 c 0,-3.210072 2.602437,-5.813509 5.811511,-5.813509 v 0 h 9.99e-4 c 3.209073,9.99e-4 5.814509,2.603437 5.814509,5.813509 v 0 c 0,3.213071 -2.605436,5.812511 -5.814509,5.81351 v 0 z m -34.88006,-5.81351 c 0,-3.210072 2.601438,-5.813509 5.811511,-5.813509 v 0 c 3.209074,0 5.814509,2.603437 5.814509,5.813509 v 0 c 0,3.213071 -2.605435,5.81351 -5.814509,5.81351 v 0 c -3.210073,0 -5.811511,-2.600439 -5.811511,-5.81351 M 321.58987,10.656092 c 0,-3.2110719 2.60343,-5.8145089 5.81551,-5.8145089 v 0 c 3.21007,0 5.81151,2.603437 5.81151,5.8145089 v 0 c 0,3.210073 -2.60144,5.81351 -5.81151,5.81351 v 0 c -3.21208,0 -5.81551,-2.603437 -5.81551,-5.81351 m -29.06755,0 c 0,-3.2110719 2.60244,-5.8145089 5.81351,-5.8145089 v 0 c 3.21107,0 5.81751,2.603437 5.81751,5.8145089 v 0 c 0,3.210073 -2.60644,5.81351 -5.81751,5.81351 v 0 c -3.21107,0 -5.81351,-2.603437 -5.81351,-5.81351 m -29.07255,0 c 0,-3.2110719 2.60244,-5.8145089 5.81551,-5.8145089 v 0 c 3.21007,0 5.81251,2.603437 5.81251,5.8145089 v 0 c 0,3.210073 -2.60244,5.81351 -5.81251,5.81351 v 0 c -3.21307,0 -5.81551,-2.603437 -5.81551,-5.81351 m -29.06755,0 c 0,-3.2110719 2.60244,-5.8145089 5.81351,-5.8145089 v 0 c 3.21107,0 5.81651,2.603437 5.81651,5.8145089 v 0 c 0,3.210073 -2.60544,5.81351 -5.81651,5.81351 v 0 c -3.21107,0 -5.81351,-2.603437 -5.81351,-5.81351 m -29.07154,0 c 0,-3.2110719 2.60143,-5.8145089 5.8155,-5.8145089 v 0 c 3.20908,0 5.81252,2.603437 5.81252,5.8145089 v 0 c 0,3.210073 -2.60344,5.81351 -5.81252,5.81351 v 0 c -3.21407,0 -5.8155,-2.603437 -5.8155,-5.81351 m -29.06755,0 c 0,-3.2110719 2.60243,-5.8145089 5.81451,-5.8145089 v 0 c 3.20907,0 5.8165,2.603437 5.8165,5.8145089 v 0 c 0,3.210073 -2.60743,5.81351 -5.8165,5.81351 v 0 c -3.21208,0 -5.81451,-2.603437 -5.81451,-5.81351 m -29.07255,0 c 0,-3.2110719 2.60244,-5.8145089 5.81651,-5.8145089 v 0 c 3.20907,0 5.81151,2.603437 5.81151,5.8145089 v 0 c 0,3.210073 -2.60244,5.81351 -5.81151,5.81351 v 0 c -3.21407,0 -5.81651,-2.603437 -5.81651,-5.81351 m -29.06755,0 c 0,-3.2110719 2.60244,-5.8145089 5.81451,-5.8145089 v 0 c 3.21007,0 5.81651,2.603437 5.81651,5.8145089 v 0 c 0,3.210073 -2.60644,5.81351 -5.81651,5.81351 v 0 c -3.21207,0 -5.81451,-2.603437 -5.81451,-5.81351 m -29.071544,0 c 0,-3.2110719 2.602437,-5.8145089 5.816508,-5.8145089 v 0 c 3.209073,0 5.811506,2.603437 5.811506,5.8145089 v 0 c 0,3.210073 -2.602433,5.81351 -5.811506,5.81351 v 0 c -3.214071,0 -5.816508,-2.603437 -5.816508,-5.81351 m -29.067549,0 c 0,-3.2110719 2.602437,-5.8145089 5.814509,-5.8145089 v 0 c 3.210073,0 5.816508,2.603437 5.816508,5.8145089 v 0 c 0,3.210073 -2.606435,5.81351 -5.816508,5.81351 v 0 c -3.212072,0 -5.814509,-2.603437 -5.814509,-5.81351 m -29.072546,0 c 0,-3.2110719 2.602437,-5.8145089 5.816508,-5.8145089 v 0 c 3.209073,0 5.810511,2.603437 5.810511,5.8145089 v 0 c 0,3.210073 -2.601438,5.81351 -5.810511,5.81351 v 0 c -3.214071,0 -5.816508,-2.603437 -5.816508,-5.81351 m -29.0675493,0 c 0,-3.2110719 2.6024376,-5.8145089 5.8145092,-5.8145089 v 0 c 3.2100731,0 5.8165081,2.603437 5.8165081,5.8145089 v 0 c 0,3.210073 -2.606435,5.81351 -5.8165081,5.81351 v 0 c -3.2120716,0 -5.8145092,-2.603437 -5.8145092,-5.81351"
       style="display:inline;fill:url(#linearGradient37);stroke:none;stroke-width:0.9994"
       id="path39"
       transform="matrix(0.35678467,0,0,-0.09430188,-0.65071876,37.70957)" /><path
       id="rect918"
       style="display:inline;fill:#d38792;stroke-width:0.222448"
       d="m 0,9.921875 h 123.472 v 17.14225 H 0 Z" /><path
       d="m 0,0 h -7.86 c -0.552,0 -1,-0.447 -1,-1 0,-0.553 0.448,-1 1,-1 H 0 c 0.552,0 1,0.447 1,1 0,0.553 -0.448,1 -1,1 m 31.438,0 h -7.859 c -0.553,0 -1,-0.447 -1,-1 0,-0.553 0.447,-1 1,-1 h 7.859 c 0.553,0 1,0.447 1,1 0,0.553 -0.447,1 -1,1 M 15.719,0 h -7.86 c -0.552,0 -1,-0.447 -1,-1 0,-0.553 0.448,-1 1,-1 h 7.86 c 0.552,0 1,0.447 1,1 0,0.553 -0.448,1 -1,1 m 31.439,0 h -7.86 c -0.553,0 -1,-0.447 -1,-1 0,-0.553 0.447,-1 1,-1 h 7.86 c 0.553,0 1,0.447 1,1 0,0.553 -0.447,1 -1,1 m 15.719,0 h -7.859 c -0.553,0 -1,-0.447 -1,-1 0,-0.553 0.447,-1 1,-1 h 7.859 c 0.553,0 1,0.447 1,1 0,0.553 -0.447,1 -1,1 m -78.596,0 h -7.86 c -0.552,0 -1,-0.447 -1,-1 0,-0.553 0.448,-1 1,-1 h 7.86 c 0.552,0 1,0.447 1,1 0,0.553 -0.448,1 -1,1 m -78.597,0 h -7.859 c -0.553,0 -1,-0.447 -1,-1 0,-0.553 0.447,-1 1,-1 h 7.859 c 0.552,0 1,0.447 1,1 0,0.553 -0.448,1 -1,1 m 15.719,0 h -7.859 c -0.552,0 -1,-0.447 -1,-1 0,-0.553 0.448,-1 1,-1 h 7.859 c 0.553,0 1,0.447 1,1 0,0.553 -0.447,1 -1,1 m 47.159,0 h -7.86 c -0.553,0 -1,-0.447 -1,-1 0,-0.553 0.447,-1 1,-1 h 7.86 c 0.552,0 1,0.447 1,1 0,0.553 -0.448,1 -1,1 m 94.315,37.348 h -7.859 c -0.553,0 -1,-0.448 -1,-1 0,-0.553 0.447,-1 1,-1 h 7.859 c 0.553,0 1,0.447 1,1 0,0.552 -0.447,1 -1,1 M -47.158,0 h -7.86 c -0.552,0 -1,-0.447 -1,-1 0,-0.553 0.448,-1 1,-1 h 7.86 c 0.552,0 1,0.447 1,1 0,0.553 -0.448,1 -1,1 m -15.719,0 h -7.86 c -0.552,0 -1,-0.447 -1,-1 0,-0.553 0.448,-1 1,-1 h 7.86 c 0.552,0 1,0.447 1,1 0,0.553 -0.448,1 -1,1 m 220.069,0 h -7.859 c -0.553,0 -1,-0.447 -1,-1 0,-0.553 0.447,-1 1,-1 h 7.859 c 0.553,0 1,0.447 1,1 0,0.553 -0.447,1 -1,1 m 0,37.348 h -7.859 c -0.553,0 -1,-0.448 -1,-1 0,-0.553 0.447,-1 1,-1 h 7.859 c 0.553,0 1,0.447 1,1 0,0.552 -0.447,1 -1,1 m 7.86,-2 h 7.86 c 0.553,0 1,0.447 1,1 0,0.552 -0.447,1 -1,1 h -7.86 c -0.553,0 -1,-0.448 -1,-1 0,-0.553 0.447,-1 1,-1 M 78.597,0 h -7.861 c -0.552,0 -1,-0.447 -1,-1 0,-0.553 0.448,-1 1,-1 h 7.861 c 0.552,0 1,0.447 1,1 0,0.553 -0.448,1 -1,1 m 62.877,37.348 h -7.861 c -0.552,0 -1,-0.448 -1,-1 0,-0.553 0.448,-1 1,-1 h 7.861 c 0.552,0 1,0.447 1,1 0,0.552 -0.448,1 -1,1 M 172.912,0 h -7.859 c -0.553,0 -1,-0.447 -1,-1 0,-0.553 0.447,-1 1,-1 h 7.859 c 0.553,0 1,0.447 1,1 0,0.553 -0.447,1 -1,1 M 94.315,0 h -7.859 c -0.553,0 -1,-0.447 -1,-1 0,-0.553 0.447,-1 1,-1 h 7.859 c 0.553,0 1,0.447 1,1 0,0.553 -0.447,1 -1,1 m 15.72,0 h -7.86 c -0.553,0 -1,-0.447 -1,-1 0,-0.553 0.447,-1 1,-1 h 7.86 c 0.553,0 1,0.447 1,1 0,0.553 -0.447,1 -1,1 m 31.439,0 h -7.86 c -0.552,0 -1,-0.447 -1,-1 0,-0.553 0.448,-1 1,-1 h 7.86 c 0.552,0 1,0.447 1,1 0,0.553 -0.448,1 -1,1 m -15.72,0 h -7.859 c -0.553,0 -1,-0.447 -1,-1 0,-0.553 0.447,-1 1,-1 h 7.859 c 0.553,0 1,0.447 1,1 0,0.553 -0.447,1 -1,1 m -251.508,0 h -7.86 c -0.553,0 -1,-0.447 -1,-1 0,-0.553 0.447,-1 1,-1 h 7.86 c 0.552,0 1,0.447 1,1 0,0.553 -0.448,1 -1,1 M 7.859,35.348 h 7.86 c 0.552,0 1,0.447 1,1 0,0.552 -0.448,1 -1,1 h -7.86 c -0.552,0 -1,-0.448 -1,-1 0,-0.553 0.448,-1 1,-1 m 15.72,0 h 7.859 c 0.553,0 1,0.447 1,1 0,0.552 -0.447,1 -1,1 h -7.859 c -0.553,0 -1,-0.448 -1,-1 0,-0.553 0.447,-1 1,-1 m -62.877,0 h 7.859 c 0.552,0 1,0.447 1,1 0,0.552 -0.448,1 -1,1 h -7.859 c -0.553,0 -1,-0.448 -1,-1 0,-0.553 0.447,-1 1,-1 m 15.719,0 h 7.859 c 0.553,0 1,0.447 1,1 0,0.552 -0.447,1 -1,1 h -7.859 c -0.552,0 -1,-0.448 -1,-1 0,-0.553 0.448,-1 1,-1 m 15.719,0 H 0 c 0.552,0 1,0.447 1,1 0,0.552 -0.448,1 -1,1 h -7.86 c -0.552,0 -1,-0.448 -1,-1 0,-0.553 0.448,-1 1,-1 m 110.035,0 h 7.859 c 0.553,0 1,0.447 1,1 0,0.552 -0.447,1 -1,1 h -7.859 c -0.553,0 -1,-0.448 -1,-1 0,-0.553 0.447,-1 1,-1 m 15.72,0 h 7.859 c 0.553,0 1,0.447 1,1 0,0.552 -0.447,1 -1,1 h -7.859 c -0.553,0 -1,-0.448 -1,-1 0,-0.553 0.447,-1 1,-1 m -47.159,0 h 7.86 c 0.552,0 1,0.447 1,1 0,0.552 -0.448,1 -1,1 h -7.86 c -0.552,0 -1,-0.448 -1,-1 0,-0.553 0.448,-1 1,-1 m -31.438,0 h 7.859 c 0.553,0 1,0.447 1,1 0,0.552 -0.447,1 -1,1 h -7.859 c -0.553,0 -1,-0.448 -1,-1 0,-0.553 0.447,-1 1,-1 m 47.158,0 h 7.859 c 0.553,0 1,0.447 1,1 0,0.552 -0.447,1 -1,1 h -7.859 c -0.553,0 -1,-0.448 -1,-1 0,-0.553 0.447,-1 1,-1 m -188.631,0 h 7.859 c 0.552,0 1,0.447 1,1 0,0.552 -0.448,1 -1,1 h -7.859 c -0.553,0 -1,-0.448 -1,-1 0,-0.553 0.447,-1 1,-1 M -157.193,0 h -7.86 c -0.552,0 -1,-0.447 -1,-1 0,-0.553 0.448,-1 1,-1 h 7.86 c 0.552,0 1,0.447 1,1 0,0.553 -0.448,1 -1,1 m 23.579,35.348 h 7.86 c 0.552,0 1,0.447 1,1 0,0.552 -0.448,1 -1,1 h -7.86 c -0.553,0 -1,-0.448 -1,-1 0,-0.553 0.447,-1 1,-1 m 78.596,0 h 7.86 c 0.552,0 1,0.447 1,1 0,0.552 -0.448,1 -1,1 h -7.86 c -0.552,0 -1,-0.448 -1,-1 0,-0.553 0.448,-1 1,-1 m -62.877,0 h 7.86 c 0.552,0 1,0.447 1,1 0,0.552 -0.448,1 -1,1 h -7.86 c -0.552,0 -1,-0.448 -1,-1 0,-0.553 0.448,-1 1,-1 m -39.298,2 h -7.86 c -0.552,0 -1,-0.448 -1,-1 0,-0.553 0.448,-1 1,-1 h 7.86 c 0.552,0 1,0.447 1,1 0,0.552 -0.448,1 -1,1 M -141.474,0 h -7.859 c -0.553,0 -1,-0.447 -1,-1 0,-0.553 0.447,-1 1,-1 h 7.859 c 0.553,0 1,0.447 1,1 0,0.553 -0.447,1 -1,1 m 0,37.348 h -7.859 c -0.553,0 -1,-0.448 -1,-1 0,-0.553 0.447,-1 1,-1 h 7.859 c 0.553,0 1,0.447 1,1 0,0.552 -0.447,1 -1,1 m 55.018,-2 h 7.859 c 0.553,0 1,0.447 1,1 0,0.552 -0.447,1 -1,1 h -7.859 c -0.552,0 -1,-0.448 -1,-1 0,-0.553 0.448,-1 1,-1 m 15.719,0 h 7.86 c 0.552,0 1,0.447 1,1 0,0.552 -0.448,1 -1,1 h -7.86 c -0.552,0 -1,-0.448 -1,-1 0,-0.553 0.448,-1 1,-1 M -109.035,-1 c 0,-0.553 -0.448,-1 -1,-1 h -7.86 c -0.552,0 -1,0.447 -1,1 0,0.553 0.448,1 1,1 h 7.86 c 0.552,0 1,-0.447 1,-1"
       style="display:inline;fill:#ffffff;fill-opacity:1;fill-rule:nonzero;stroke:none"
       id="path57"
       transform="matrix(0.35277777,0,0,-0.35277777,60.30055,24.86151)" /></g></svg>
