<?xml version="1.0" encoding="UTF-8" standalone="no"?>
<!-- Created with Inkscape (http://www.inkscape.org/) -->

<svg
   width="121.982mm"
   height="2.6300001mm"
   viewBox="0 0 121.982 2.6300001"
   version="1.1"
   id="svg5"
   xml:space="preserve"
   inkscape:version="1.2.1 (9c6d41e410, 2022-07-14)"
   sodipodi:docname="pink_dash_hr.svg"
   inkscape:export-filename="Pink Ribbon Brown Sticker Export.svg"
   inkscape:export-xdpi="96"
   inkscape:export-ydpi="96"
   xmlns:inkscape="http://www.inkscape.org/namespaces/inkscape"
   xmlns:sodipodi="http://sodipodi.sourceforge.net/DTD/sodipodi-0.dtd"
   xmlns="http://www.w3.org/2000/svg"
   xmlns:svg="http://www.w3.org/2000/svg"><sodipodi:namedview
     id="namedview7"
     pagecolor="#505050"
     bordercolor="#eeeeee"
     borderopacity="1"
     inkscape:showpageshadow="0"
     inkscape:pageopacity="0"
     inkscape:pagecheckerboard="0"
     inkscape:deskcolor="#505050"
     inkscape:document-units="mm"
     showgrid="false"
     inkscape:zoom="4"
     inkscape:cx="160.5"
     inkscape:cy="9.625"
     inkscape:window-width="1842"
     inkscape:window-height="1051"
     inkscape:window-x="-9"
     inkscape:window-y="-9"
     inkscape:window-maximized="1"
     inkscape:current-layer="layer1" /><defs
     id="defs2"><linearGradient
       x1="0"
       y1="0"
       x2="1"
       y2="0"
       gradientUnits="userSpaceOnUse"
       gradientTransform="matrix(-1.529082e-5,395.03871,395.03871,1.529082e-5,174.79004,4.8422155)"
       spreadMethod="pad"
       id="linearGradient37"><stop
         style="stop-opacity:1;stop-color:#c2b59b"
         offset="0"
         id="stop33" /><stop
         style="stop-opacity:1;stop-color:#e0d1b3"
         offset="1"
         id="stop35" /></linearGradient></defs><g
     inkscape:label="Layer 1"
     inkscape:groupmode="layer"
     id="layer1"
     style="display:inline"
     transform="translate(-0.7,-10.721875)"><path
       id="rect918"
       style="display:inline;fill:#d38792;stroke-width:0.0866037"
       d="m 0.7,10.721875 h 121.982 v 2.63 H 0.7 Z" /><path
       id="path349"
       style="display:inline;fill:#ffffff;fill-opacity:1;fill-rule:nonzero;stroke:none"
       transform="matrix(0.35277777,0,0,-0.35277777,60.30055,24.86151)"
       d="m 62.877,37.348 h -7.859 c -0.553,0 -1,-0.448 -1,-1 0,-0.553 0.447,-1 1,-1 h 7.859 c 0.553,0 1,0.447 1,1 0,0.552 -0.447,1 -1,1 m 94.315,0 h -7.859 c -0.553,0 -1,-0.448 -1,-1 0,-0.553 0.447,-1 1,-1 h 7.859 c 0.553,0 1,0.447 1,1 0,0.552 -0.447,1 -1,1 m 7.86,-2 h 7.86 c 0.553,0 1,0.447 1,1 0,0.552 -0.447,1 -1,1 h -7.86 c -0.553,0 -1,-0.448 -1,-1 0,-0.553 0.447,-1 1,-1 m -23.578,2 h -7.861 c -0.552,0 -1,-0.448 -1,-1 0,-0.553 0.448,-1 1,-1 h 7.861 c 0.552,0 1,0.447 1,1 0,0.552 -0.448,1 -1,1 m -133.615,-2 h 7.86 c 0.552,0 1,0.447 1,1 0,0.552 -0.448,1 -1,1 h -7.86 c -0.552,0 -1,-0.448 -1,-1 0,-0.553 0.448,-1 1,-1 m 15.72,0 h 7.859 c 0.553,0 1,0.447 1,1 0,0.552 -0.447,1 -1,1 h -7.859 c -0.553,0 -1,-0.448 -1,-1 0,-0.553 0.447,-1 1,-1 m -62.877,0 h 7.859 c 0.552,0 1,0.447 1,1 0,0.552 -0.448,1 -1,1 h -7.859 c -0.553,0 -1,-0.448 -1,-1 0,-0.553 0.447,-1 1,-1 m 15.719,0 h 7.859 c 0.553,0 1,0.447 1,1 0,0.552 -0.447,1 -1,1 h -7.859 c -0.552,0 -1,-0.448 -1,-1 0,-0.553 0.448,-1 1,-1 m 15.719,0 H 0 c 0.552,0 1,0.447 1,1 0,0.552 -0.448,1 -1,1 h -7.86 c -0.552,0 -1,-0.448 -1,-1 0,-0.553 0.448,-1 1,-1 m 110.035,0 h 7.859 c 0.553,0 1,0.447 1,1 0,0.552 -0.447,1 -1,1 h -7.859 c -0.553,0 -1,-0.448 -1,-1 0,-0.553 0.447,-1 1,-1 m 15.72,0 h 7.859 c 0.553,0 1,0.447 1,1 0,0.552 -0.447,1 -1,1 h -7.859 c -0.553,0 -1,-0.448 -1,-1 0,-0.553 0.447,-1 1,-1 m -47.159,0 h 7.86 c 0.552,0 1,0.447 1,1 0,0.552 -0.448,1 -1,1 h -7.86 c -0.552,0 -1,-0.448 -1,-1 0,-0.553 0.448,-1 1,-1 m -31.438,0 h 7.859 c 0.553,0 1,0.447 1,1 0,0.552 -0.447,1 -1,1 h -7.859 c -0.553,0 -1,-0.448 -1,-1 0,-0.553 0.447,-1 1,-1 m 47.158,0 h 7.859 c 0.553,0 1,0.447 1,1 0,0.552 -0.447,1 -1,1 h -7.859 c -0.553,0 -1,-0.448 -1,-1 0,-0.553 0.447,-1 1,-1 m -188.631,0 h 7.859 c 0.552,0 1,0.447 1,1 0,0.552 -0.448,1 -1,1 h -7.859 c -0.553,0 -1,-0.448 -1,-1 0,-0.553 0.447,-1 1,-1 m -31.439,0 h 7.86 c 0.552,0 1,0.447 1,1 0,0.552 -0.448,1 -1,1 h -7.86 c -0.553,0 -1,-0.448 -1,-1 0,-0.553 0.447,-1 1,-1 m 78.596,0 h 7.86 c 0.552,0 1,0.447 1,1 0,0.552 -0.448,1 -1,1 h -7.86 c -0.552,0 -1,-0.448 -1,-1 0,-0.553 0.448,-1 1,-1 m -62.877,0 h 7.86 c 0.552,0 1,0.447 1,1 0,0.552 -0.448,1 -1,1 h -7.86 c -0.552,0 -1,-0.448 -1,-1 0,-0.553 0.448,-1 1,-1 m -39.298,2 h -7.86 c -0.552,0 -1,-0.448 -1,-1 0,-0.553 0.448,-1 1,-1 h 7.86 c 0.552,0 1,0.447 1,1 0,0.552 -0.448,1 -1,1 m 15.719,0 h -7.859 c -0.553,0 -1,-0.448 -1,-1 0,-0.553 0.447,-1 1,-1 h 7.859 c 0.553,0 1,0.447 1,1 0,0.552 -0.447,1 -1,1 m 55.018,-2 h 7.859 c 0.553,0 1,0.447 1,1 0,0.552 -0.447,1 -1,1 h -7.859 c -0.552,0 -1,-0.448 -1,-1 0,-0.553 0.448,-1 1,-1 m 15.719,0 h 7.86 c 0.552,0 1,0.447 1,1 0,0.552 -0.448,1 -1,1 h -7.86 c -0.552,0 -1,-0.448 -1,-1 0,-0.553 0.448,-1 1,-1" /></g></svg>
